<svg width="340" height="451" viewBox="0 0 340 451" fill="none" xmlns="http://www.w3.org/2000/svg">
<path opacity="0.182143" fill-rule="evenodd" clip-rule="evenodd" d="M314.739 451H332C336.418 451 340 447.418 340 443V0H0.00012207V443C0.00012207 447.418 3.58184 451 8.00011 451H24.5784L38.233 431.822L52.5703 451H77.8314L91.486 431.822L106.506 451H130.402L144.056 431.822L158.394 451H182.972L196.626 431.822L209.598 451H234.177L248.514 431.822L262.168 451H287.43L301.767 431.822L314.739 451ZM286.929 450L301.808 430.097L315.27 450H332C335.866 450 339 446.866 339 443V1H1.00012V443C1.00012 446.866 4.13412 450 8.00011 450H24.0628L38.2133 430.125L53.0713 450H77.3158L91.4478 430.151L106.993 450H129.886L144.036 430.125L158.894 450H182.456L196.647 430.068L210.129 450H233.676L248.534 430.125L262.684 450H286.929Z" fill="#979797"/>
</svg>
