<svg width="201" height="212" viewBox="0 0 201 212" fill="none" xmlns="http://www.w3.org/2000/svg">
<path d="M102 192C152.258 192 193 151.258 193 101C193 50.7421 152.258 10 102 10C51.7421 10 11 50.7421 11 101C11 151.258 51.7421 192 102 192Z" fill="#F5F5F5"/>
<rect x="170" y="102.152" width="20" height="109.848" rx="2" fill="#CBCBCB"/>
<path d="M32.7098 209C34.6926 209 42.7325 208.109 40.9999 209H174.507C176.597 206.313 171.058 203.006 171.664 199.616C174.499 183.775 158.784 170.689 146.636 164.057C133.941 157.127 120 153.108 106.202 149.108C101.125 147.637 89.8899 151.497 85.1339 149.108C70.4199 141.713 54.448 147.876 61.7583 153.756C73.7383 163.392 46.6056 180.732 36.1384 193.509C30.1755 200.789 23.5953 209 32.7098 209Z" fill="#343436"/>
<rect x="147" y="103" width="10" height="58" rx="2" fill="#EEEEEE"/>
<path fill-rule="evenodd" clip-rule="evenodd" d="M151.298 109.214C166.209 109.214 178.298 91.5296 178.298 69.7143C178.298 64.7715 188.39 62.0735 187.602 55.8818C184.912 34.7464 167.179 7.16173 155.646 7.16173C149.458 7.16173 141.6 5.12544 138.548 15.5039C137.062 20.557 140.559 36.1712 138.548 41.7391C134.735 52.2937 124.298 61.3592 124.298 69.7143C124.298 77.9082 121.378 87.0263 124.298 93.3365C129.152 103.826 141.987 109.214 151.298 109.214Z" fill="#E9E9E9"/>
<path fill-rule="evenodd" clip-rule="evenodd" d="M158.298 103.214C173.209 103.214 185.298 85.5296 185.298 63.7143C185.298 58.7715 195.39 56.0735 194.602 49.8818C191.912 28.7464 174.179 1.16173 162.646 1.16173C156.458 1.16173 148.6 -0.87456 145.548 9.50391C144.062 14.557 147.559 30.1712 145.548 35.7391C141.735 46.2937 131.298 55.3592 131.298 63.7143C131.298 71.9082 128.378 81.0263 131.298 87.3365C136.152 97.8264 148.987 103.214 158.298 103.214Z" fill="#FAFAFA"/>
<path d="M79.9366 153.392C82.4119 154.901 84.9712 156.278 87.6299 157.414C93.721 160.017 99.9075 162.472 105.612 165.872C113.839 170.775 122.762 179.213 119.447 189.964C116.939 198.096 109.308 204.512 102.438 209H114.025C118.031 205.74 121.541 202.118 124 197.499C138.146 170.923 98.5394 161.031 82.7409 152.914C77.3262 150.131 76.5882 151.352 79.9366 153.392Z" fill="white"/>
<rect x="172" y="101" width="29" height="111" rx="2" fill="#D8D8D8"/>
<mask id="mask0" mask-type="alpha" maskUnits="userSpaceOnUse" x="172" y="101" width="29" height="111">
<rect x="172" y="101" width="29" height="111" rx="2" fill="white"/>
</mask>
<g mask="url(#mask0)">
<path d="M220.227 137L228.712 145.485L171.485 202.712L163 194.227L220.227 137Z" fill="#BE4545"/>
<path d="M234.227 160L242.712 168.485L185.485 225.712L177 217.227L234.227 160Z" fill="#BE4545"/>
<rect x="214.834" y="106" width="12" height="76.1322" transform="rotate(45 214.834 106)" fill="#BE4545"/>
<rect x="196.834" y="88" width="12" height="76.1322" transform="rotate(45 196.834 88)" fill="#BE4545"/>
<path d="M187 160C191.971 160 196 155.971 196 151C196 146.029 191.971 142 187 142C182.029 142 178 146.029 178 151C178 155.971 182.029 160 187 160Z" fill="#3A3A3A"/>
<rect x="175" y="113" width="24" height="15" rx="3" fill="white"/>
<rect x="179" y="119" width="16" height="3" rx="1.5" fill="#3A3A3A"/>
</g>
<rect x="20" y="144" width="173" height="13" rx="6.5" fill="white"/>
<rect x="23" y="147" width="165" height="7" rx="3.5" fill="#B54242"/>
<path d="M42 77C62.4345 77 79 60.4345 79 40C79 19.5655 62.4345 3 42 3C21.5655 3 5 19.5655 5 40C5 60.4345 21.5655 77 42 77Z" fill="#F5F5F5"/>
<path d="M37 74C57.4345 74 74 57.4345 74 37C74 16.5655 57.4345 0 37 0C16.5655 0 0 16.5655 0 37C0 57.4345 16.5655 74 37 74Z" fill="white"/>
</svg>
