<svg width="135" height="76" viewBox="0 0 135 76" fill="none" xmlns="http://www.w3.org/2000/svg">
<path d="M34.5 35C42.5081 35 49 28.5081 49 20.5C49 12.4919 42.5081 6 34.5 6C26.4919 6 20 12.4919 20 20.5C20 28.5081 26.4919 35 34.5 35Z" fill="white"/>
<path d="M86.5 35C94.5081 35 101 28.5081 101 20.5C101 12.4919 94.5081 6 86.5 6C78.4919 6 72 12.4919 72 20.5C72 28.5081 78.4919 35 86.5 35Z" fill="white"/>
<rect width="34.1129" height="76" fill="#D95050"/>
<path fill-rule="evenodd" clip-rule="evenodd" d="M38.1736 22.7116C38.1736 21.2471 38.3572 19.9111 38.7244 18.7038C39.0915 17.4965 39.5901 16.4723 40.2203 15.6312C40.8504 14.79 41.5946 14.08 42.453 13.5011C43.3113 12.9222 44.2267 12.4991 45.1992 12.232C46.1717 11.9648 47.1937 11.8312 48.2655 11.8312C49.6646 11.8312 50.9645 12.0588 52.1652 12.514C53.3659 12.9692 54.4277 13.6322 55.3506 14.5031C56.2734 15.3739 57.0003 16.5119 57.5312 17.9171C58.0621 19.3223 58.3275 20.9106 58.3275 22.682C58.3275 24.1466 58.1464 25.4849 57.7842 26.6972C57.422 27.9094 56.9284 28.9336 56.3032 29.7698C55.678 30.6061 54.9388 31.3086 54.0854 31.8777C53.232 32.4467 52.3215 32.8648 51.354 33.132C50.3865 33.3991 49.3669 33.5327 48.2952 33.5327C47.1937 33.5327 46.1469 33.3942 45.1545 33.1171C44.1622 32.84 43.2419 32.4071 42.3934 31.8183C41.545 31.2295 40.8107 30.512 40.1905 29.6659C39.5703 28.8198 39.0841 27.7981 38.7318 26.6007C38.3795 25.4033 38.2034 24.0872 38.2034 22.6523L38.1736 22.7116ZM42.2074 22.7413C42.2074 25.0669 42.768 26.8555 43.8893 28.1073C45.0107 29.3592 46.4594 29.9851 48.2357 29.9851C50.0119 29.9851 51.4632 29.3567 52.5895 28.0999C53.7157 26.8432 54.2789 25.0471 54.2789 22.7116C54.2789 20.396 53.7157 18.6123 52.5895 17.3605C51.4632 16.1086 50.0119 15.4827 48.2357 15.4827C46.4594 15.4827 45.0156 16.1062 43.9042 17.3531C42.7928 18.5999 42.2371 20.3861 42.2371 22.7116L42.2074 22.7413ZM62.525 33.2952V12.0093H70.3395C72.2249 12.0093 73.7108 12.5041 74.7974 13.4937C75.884 14.4833 76.4273 15.9033 76.4273 17.7538C76.4273 18.6346 76.2437 19.4287 75.8766 20.1363C75.5094 20.8438 74.9934 21.3609 74.3286 21.6874C76.4621 22.5682 77.5288 24.3098 77.5288 26.9124C77.5288 28.9411 76.9061 30.512 75.6607 31.6253C74.4154 32.7386 72.6913 33.2952 70.4883 33.2952H62.525ZM66.4992 29.6437L70.1162 29.614C72.4184 29.614 73.5694 28.6739 73.5694 26.7937C73.5694 24.8838 72.4184 23.9288 70.1162 23.9288H66.4992V29.6437ZM66.529 20.2476L70.146 20.2773C70.9994 20.2773 71.6295 20.0991 72.0363 19.7429C72.4432 19.3866 72.6466 18.7978 72.6466 17.9765C72.6466 17.1353 72.4357 16.5342 72.014 16.173C71.5923 15.8118 70.9299 15.6312 70.0269 15.6312H66.529V20.2476ZM81.5328 33.2952V11.9796H85.507V20.2476H89.4961C91.7189 20.2476 93.448 20.8166 94.6834 21.9546C95.9188 23.0926 96.5365 24.7056 96.5365 26.7937C96.5365 28.8718 95.9188 30.4749 94.6834 31.6031C93.448 32.7312 91.7189 33.2952 89.4961 33.2952H81.5328ZM85.507 29.614H89.124C91.4261 29.614 92.5772 28.664 92.5772 26.764C92.5772 24.8541 91.4261 23.8991 89.124 23.8991H85.507V29.614ZM99.3944 33.2656V11.7421H103.175V33.2656H99.3944ZM108.653 33.2952V12.0093H112.627V26.0663L120.456 12.0093H124.624V33.2952H120.665V19.2531L112.835 33.2952H108.653ZM113.044 6.05696H115.827C115.827 6.32415 115.899 6.53691 116.043 6.69524C116.187 6.85358 116.388 6.93274 116.646 6.93274C116.874 6.93274 117.063 6.8511 117.211 6.68782C117.36 6.52454 117.435 6.31425 117.435 6.05696H120.218C120.218 6.98717 119.881 7.77141 119.206 8.4097C118.531 9.04798 117.668 9.36712 116.616 9.36712C115.574 9.36712 114.718 9.04551 114.048 8.40227C113.379 7.75904 113.044 6.97728 113.044 6.05696ZM37.3252 54.5593C37.3252 53.0947 37.5088 51.7588 37.8759 50.5515C38.2431 49.3442 38.7417 48.32 39.3718 47.4788C40.002 46.6376 40.7462 45.9276 41.6045 45.3487C42.4629 44.7698 43.3783 44.3468 44.3508 44.0796C45.3232 43.8124 46.3453 43.6788 47.417 43.6788C48.8162 43.6788 50.1161 43.9064 51.3168 44.3616C52.5175 44.8168 53.5793 45.4798 54.5021 46.3507C55.425 47.2215 56.1519 48.3595 56.6828 49.7647C57.2136 51.17 57.4791 52.7582 57.4791 54.5296C57.4791 55.9942 57.298 57.3326 56.9358 58.5448C56.5736 59.7571 56.0799 60.7813 55.4548 61.6175C54.8296 62.4537 54.0903 63.1563 53.2369 63.7253C52.3835 64.2943 51.4731 64.7124 50.5056 64.9796C49.5381 65.2468 48.5185 65.3804 47.4468 65.3804C46.3453 65.3804 45.2984 65.2418 44.3061 64.9647C43.3138 64.6876 42.3934 64.2547 41.545 63.6659C40.6966 63.0771 39.9623 62.3597 39.3421 61.5136C38.7219 60.6675 38.2356 59.6457 37.8834 58.4483C37.5311 57.2509 37.355 55.9348 37.355 54.4999L37.3252 54.5593ZM41.3589 54.589C41.3589 56.9145 41.9196 58.7031 43.0409 59.955C44.1622 61.2068 45.611 61.8327 47.3873 61.8327C49.1635 61.8327 50.6147 61.2043 51.741 59.9475C52.8673 58.6908 53.4304 56.8947 53.4304 54.5593C53.4304 52.2436 52.8673 50.4599 51.741 49.2081C50.6147 47.9563 49.1635 47.3304 47.3873 47.3304C45.611 47.3304 44.1672 47.9538 43.0558 49.2007C41.9444 50.4476 41.3887 52.2337 41.3887 54.5593L41.3589 54.589ZM59.1164 61.3429C59.553 61.3429 59.9028 61.3305 60.1658 61.3058C60.4287 61.281 60.6867 61.2266 60.9398 61.1425C61.1928 61.0584 61.3863 60.9322 61.5203 60.764C61.6542 60.5957 61.7684 60.3731 61.8626 60.096C61.9569 59.8189 62.0189 59.4726 62.0487 59.0569L63.1799 43.8569H76.0403V65.1429H72.081V47.6272H66.7374L65.8889 59.3686C65.621 63.2181 63.3734 65.1429 59.1462 65.1429L59.1164 61.3429ZM81.5179 65.1429V43.8569H85.4921V57.914L93.3214 43.8569H97.4892V65.1429H93.5298V51.1007L85.7005 65.1429H81.5179ZM101.657 54.4999C101.657 51.1452 102.644 48.4832 104.619 46.514C106.584 44.5843 108.96 43.6194 111.749 43.6194C114.041 43.6194 115.956 44.1835 117.494 45.3116C119.032 46.4397 120.054 48.0231 120.56 50.0616L116.988 51.0116C116.085 48.5376 114.329 47.3007 111.719 47.3007C109.933 47.3007 108.482 47.9291 107.365 49.1858C106.249 50.4426 105.691 52.2139 105.691 54.4999C105.691 56.7858 106.256 58.5646 107.387 59.8362C108.519 61.1078 109.972 61.7436 111.749 61.7436C114.329 61.7436 116.085 60.5067 117.018 58.0327L120.59 58.9382C120.084 60.9866 119.062 62.5724 117.524 63.6956C115.986 64.8188 114.061 65.3804 111.749 65.3804C108.921 65.3804 106.544 64.4205 104.619 62.5007C102.664 60.5809 101.687 57.914 101.687 54.4999H101.657Z" fill="black"/>
<path fill-rule="evenodd" clip-rule="evenodd" d="M9.99707 33.2952V12.0093H13.9713V20.0991H22.5002V12.0093H26.4596V33.2952H22.5002V23.7507H13.9713V33.2952H9.99707Z" fill="white"/>
<path fill-rule="evenodd" clip-rule="evenodd" d="M9.99707 65.1429V43.8569H25.6111V65.1429H21.6518V47.6272H13.9713V65.1429H9.99707Z" fill="white"/>
</svg>
