<svg width="35" height="31" viewBox="0 0 35 31" fill="none" xmlns="http://www.w3.org/2000/svg">
<path fill-rule="evenodd" clip-rule="evenodd" d="M17.5 20C17.2284 20 16.957 19.9031 16.7397 19.7097C16.4644 19.4644 9.99977 13.6354 10 7.5901C10 3.40493 13.3645 0 17.5001 0C21.6356 0 25 3.40493 25 7.5901C25 13.6354 18.5356 19.4644 18.2603 19.7097C18.0431 19.9031 17.7716 20 17.5 20ZM19.4443 7.5901C19.4443 6.49459 18.5737 5.60693 17.5 5.60693C16.426 5.60693 15.5555 6.49459 15.5555 7.5901C15.5555 8.68538 16.426 9.57327 17.5 9.57327C18.5737 9.57327 19.4443 8.68549 19.4443 7.5901Z" fill="#D95050"/>
<path d="M33 19.0118L32.1009 15.8633C31.955 15.3523 31.4878 15 30.9563 15H24.5397C24.3077 15.3446 24.063 15.6905 23.8042 16.0384C22.0056 18.4532 20.1773 20.0866 19.9746 20.2651C19.4526 20.7245 18.7821 20.9774 18.0864 20.9774C17.3911 20.9774 16.7206 20.7247 16.1979 20.2649C15.9954 20.0866 14.1668 18.4529 12.3684 16.0384C12.1096 15.6905 11.8649 15.3445 11.6329 15H5.21621C4.68468 15 4.21752 15.3523 4.07156 15.8633L3 19.6157L26.9525 24L33 19.0118Z" fill="black"/>
<path d="M34.9535 29.4142L32.6129 21L21 31H33.7872C34.1678 31 34.5262 30.8168 34.7554 30.5052C34.9846 30.1935 35.0578 29.7895 34.9535 29.4142Z" fill="black"/>
<path d="M6 22.6631L2.25679 22L0.0470197 29.4896C-0.0583656 29.8471 0.0155394 30.2319 0.247215 30.5287C0.478768 30.8255 0.840914 31 1.22544 31H6V22.6631Z" fill="black"/>
<path d="M7 23V31H18.3473L24 26.1696L7 23Z" fill="black"/>
</svg>
