<svg width="240" height="204" viewBox="0 0 240 204" fill="none" xmlns="http://www.w3.org/2000/svg">
<path d="M119.989 181.536C170.241 181.536 210.978 140.898 210.978 90.7679C210.978 40.6382 170.241 0 119.989 0C69.7372 0 29 40.6382 29 90.7679C29 140.898 69.7372 181.536 119.989 181.536Z" fill="#F5F5F5"/>
<path fill-rule="evenodd" clip-rule="evenodd" d="M108.646 202.686C96.5439 202.686 87.7425 167.18 87.7425 167.18C87.7425 167.18 102.45 142.462 114.552 142.462C126.655 142.462 134.09 168.911 134.09 185.5C134.09 202.089 120.749 202.686 108.646 202.686Z" fill="#242424"/>
<path fill-rule="evenodd" clip-rule="evenodd" d="M19.8384 179.027C11.5045 179.027 4.74858 169.638 4.74858 158.056C4.74858 146.474 11.5045 137.085 19.8384 137.085C28.1723 137.085 34.9282 146.474 34.9282 158.056C34.9282 169.638 28.1723 179.027 19.8384 179.027Z" fill="#242424"/>
<path fill-rule="evenodd" clip-rule="evenodd" d="M106.066 201.611C97.7321 201.611 90.9761 190.296 90.9761 176.338C90.9761 162.381 97.7321 151.066 106.066 151.066C114.4 151.066 121.156 162.381 121.156 176.338C121.156 190.296 114.4 201.611 106.066 201.611Z" fill="#363638"/>
<path fill-rule="evenodd" clip-rule="evenodd" d="M200.916 196.234C189.011 196.234 179.359 186.604 179.359 174.725C179.359 162.846 189.011 153.217 200.916 153.217C212.822 153.217 222.473 162.846 222.473 174.725C222.473 186.604 212.822 196.234 200.916 196.234Z" fill="#363638"/>
<path fill-rule="evenodd" clip-rule="evenodd" d="M193.371 196.234C181.466 196.234 171.814 186.604 171.814 174.725C171.814 162.846 181.466 153.217 193.371 153.217C205.277 153.217 214.928 162.846 214.928 174.725C214.928 186.604 205.277 196.234 193.371 196.234Z" fill="#292929"/>
<path fill-rule="evenodd" clip-rule="evenodd" d="M13.3714 177.951C8.60917 177.951 4.74863 169.044 4.74863 158.056C4.74863 147.068 8.60917 138.161 13.3714 138.161C18.1336 138.161 21.9941 147.068 21.9941 158.056C21.9941 169.044 18.1336 177.951 13.3714 177.951Z" fill="#363638"/>
<path fill-rule="evenodd" clip-rule="evenodd" d="M105.527 197.309C99.277 197.309 94.21 188.402 94.21 177.414C94.21 166.426 99.277 157.518 105.527 157.518C111.778 157.518 116.845 166.426 116.845 177.414C116.845 188.402 111.778 197.309 105.527 197.309Z" fill="#DADBDD"/>
<path fill-rule="evenodd" clip-rule="evenodd" d="M12.8324 174.725C8.96309 174.725 5.8264 167.503 5.8264 158.594C5.8264 149.685 8.96309 142.462 12.8324 142.462C16.7017 142.462 19.8384 149.685 19.8384 158.594C19.8384 167.503 16.7017 174.725 12.8324 174.725Z" fill="#DADBDD"/>
<path fill-rule="evenodd" clip-rule="evenodd" d="M104.449 190.856C99.9848 190.856 96.3655 184.597 96.3655 176.876C96.3655 169.155 99.9848 162.895 104.449 162.895C108.914 162.895 112.533 169.155 112.533 176.876C112.533 184.597 108.914 190.856 104.449 190.856Z" fill="#686A70"/>
<path fill-rule="evenodd" clip-rule="evenodd" d="M13.9104 167.197C11.2317 167.197 9.06014 162.382 9.06014 156.443C9.06014 150.503 11.2317 145.689 13.9104 145.689C16.5892 145.689 18.7607 150.503 18.7607 156.443C18.7607 162.382 16.5892 167.197 13.9104 167.197Z" fill="#686A70"/>
<path fill-rule="evenodd" clip-rule="evenodd" d="M104.449 182.253C102.366 182.253 100.677 179.364 100.677 175.801C100.677 172.237 102.366 169.348 104.449 169.348C106.533 169.348 108.222 172.237 108.222 175.801C108.222 179.364 106.533 182.253 104.449 182.253Z" fill="#F9F9F9"/>
<path fill-rule="evenodd" clip-rule="evenodd" d="M212.772 130.517L195.348 113.695C195.348 113.695 184.864 99.3372 178.387 94.4034C171.909 89.4696 168.36 89.6746 161.535 87.9398C154.709 86.2049 156.003 86.3321 147.285 86.99C138.567 87.6478 130.983 91.0467 130.983 91.0467C130.983 91.0467 123.301 94.5564 117.806 98.3903C112.311 102.224 112.89 101.387 107.247 107.223C101.604 113.06 98.8969 116.817 96.926 118.844C94.9551 120.87 93.6783 120.955 91.8282 121.849C89.9781 122.743 87.2789 121.849 83.5108 122.612C79.7428 123.374 78.0419 127.21 78.0419 127.21L122.982 148.313L149.388 179.027L161.535 161.028L178.387 139.251L212.772 130.517ZM162.966 98.256C159.018 95.2421 153.7 97.5926 151.897 102.221L146.872 115.121C145.868 117.697 147.718 120.491 150.481 120.572L168.242 121.093C172.05 121.205 175.153 118.193 174.059 114.545C173.703 113.358 173.227 112.07 172.59 110.728C169.844 104.948 168.952 103.829 164.965 99.9654C164.334 99.3546 163.658 98.7839 162.966 98.256ZM146.618 92.8359C149.271 92.9911 150.718 95.7996 149.547 98.1846L141.173 115.243C139.492 118.667 136.01 120.836 132.196 120.836H109.287C106.107 120.836 104.268 117.351 106.228 114.846C108.453 112.003 111.273 108.732 114.049 106.425C120.027 101.457 133.249 94.9193 138.427 93.4262C140.866 92.7229 143.993 92.6822 146.618 92.8359Z" fill="#CFCFCF"/>
<path fill-rule="evenodd" clip-rule="evenodd" d="M41.9342 144.613C21.9924 144.613 5.82642 137.872 5.82642 129.557C5.82642 121.242 21.9924 114.501 41.9342 114.501C61.876 114.501 78.042 121.242 78.042 129.557C78.042 137.872 61.876 144.613 41.9342 144.613Z" fill="url(#paint0_linear)"/>
<path fill-rule="evenodd" clip-rule="evenodd" d="M70.4971 141.387C50.8529 141.387 34.9282 134.165 34.9282 125.255C34.9282 116.346 50.8529 109.124 70.4971 109.124C90.1412 109.124 106.066 116.346 106.066 125.255C106.066 134.165 90.1412 141.387 70.4971 141.387Z" fill="url(#paint1_linear)"/>
<path fill-rule="evenodd" clip-rule="evenodd" d="M60.2575 129.557C54.6024 129.557 50.018 125.224 50.018 119.878C50.018 114.533 54.6024 110.2 60.2575 110.2C65.9127 110.2 70.4971 114.533 70.4971 119.878C70.4971 125.224 65.9127 129.557 60.2575 129.557Z" fill="#525458"/>
<path fill-rule="evenodd" clip-rule="evenodd" d="M60.2575 127.406C55.7929 127.406 52.1736 124.036 52.1736 119.878C52.1736 115.721 55.7929 112.35 60.2575 112.35C64.7221 112.35 68.3413 115.721 68.3413 119.878C68.3413 124.036 64.7221 127.406 60.2575 127.406Z" fill="#C9C9C9"/>
<path fill-rule="evenodd" clip-rule="evenodd" d="M60.7968 125.255C57.8204 125.255 55.4076 122.848 55.4076 119.878C55.4076 116.909 57.8204 114.501 60.7968 114.501C63.7732 114.501 66.186 116.909 66.186 119.878C66.186 122.848 63.7732 125.255 60.7968 125.255Z" fill="#525458"/>
<path fill-rule="evenodd" clip-rule="evenodd" d="M14.4493 162.895C13.2587 162.895 12.2936 160.488 12.2936 157.518C12.2936 154.549 13.2587 152.141 14.4493 152.141C15.6398 152.141 16.605 154.549 16.605 157.518C16.605 160.488 15.6398 162.895 14.4493 162.895Z" fill="#F9F9F9"/>
<path fill-rule="evenodd" clip-rule="evenodd" d="M210.807 127.088L189.813 103.857C189.813 103.857 178.713 94.0686 174.939 91.3392C171.165 88.6097 166.091 86.6991 166.091 86.6991C166.091 86.6991 157.792 83.2532 150.085 81.6836C142.378 80.114 142.407 80.4433 130.507 79.4525C118.608 78.4618 106.155 79.4525 106.155 79.4525L86.665 80.4163L105.27 95.2379L123.055 127.088L158.533 159.059C158.533 159.059 184.985 162.895 187.399 162.895C189.813 162.895 213.851 149.042 213.851 149.042V131.671L210.807 127.088ZM196.264 118.515C197.576 118.515 198.255 116.957 197.349 116.008C193.416 111.886 185.735 103.943 183.149 102.034C179.616 99.4257 172.62 92.0591 161.838 90.5443C151.057 89.0296 147.336 90.3752 141.143 92.5669C134.951 94.7587 132.656 106.767 132.869 110.733C133.082 114.699 135.944 118.515 137.383 118.515C138.822 118.515 153.337 118.515 160.369 118.515C167.401 118.515 174.328 118.515 178.002 118.515C181.675 118.515 185.873 118.515 187.763 118.515C189.652 118.515 196.264 118.515 196.264 118.515Z" fill="url(#paint2_linear)"/>
<path fill-rule="evenodd" clip-rule="evenodd" d="M82.3535 175.595V182.253L29.5391 171.954C29.5391 171.954 33.3742 167.168 33.3742 165.296C33.3742 163.423 82.3535 175.595 82.3535 175.595Z" fill="url(#paint3_linear)"/>
<path fill-rule="evenodd" clip-rule="evenodd" d="M136.246 128.497L126.534 108.821C126.534 108.821 116.42 93.6286 110.171 88.408C103.923 83.1874 100.499 83.4043 93.9146 81.5686C87.3305 79.7329 88.5781 79.8674 80.1684 80.5636C71.7587 81.2597 64.4421 84.8562 64.4421 84.8562C64.4421 84.8562 57.0318 88.5699 51.7308 92.6268C46.4297 96.6836 46.9881 95.7972 41.5446 101.973C36.1011 108.15 33.4896 112.125 31.5884 114.269C29.6871 116.413 28.4554 116.503 26.6707 117.449C24.8859 118.395 22.2821 117.449 18.6471 118.256C15.0121 119.063 13.3714 123.122 13.3714 123.122L30.2598 165.746L82.1971 177.951L93.9146 158.906L110.171 135.863L136.246 128.497ZM95.8147 94.4751C91.9305 91.036 86.2995 93.4894 84.5631 98.3782L79.6166 112.305C78.7099 114.858 80.5496 117.555 83.2572 117.642L100.094 118.184C103.921 118.307 107.051 115.286 106.082 111.582C105.73 110.239 105.246 108.766 104.579 107.226C101.931 101.11 101.07 99.9253 97.2236 95.8374C96.7741 95.3598 96.3006 94.9053 95.8147 94.4751ZM79.6249 88.2998C82.1894 88.4707 83.6028 91.1555 82.5528 93.5015L74.2703 112.007C72.6598 115.605 69.0853 117.922 65.1428 117.922H43.42C40.3147 117.922 38.4509 114.573 40.2406 112.036C42.4329 108.927 45.2933 105.236 48.1064 102.672C53.8737 97.4158 66.6284 90.4979 71.623 88.918C74.0067 88.164 77.0717 88.1297 79.6249 88.2998Z" fill="url(#paint4_linear)"/>
<path fill-rule="evenodd" clip-rule="evenodd" d="M57.0241 128.482C55.5359 128.482 54.3295 127.278 54.3295 125.793C54.3295 124.308 55.5359 123.105 57.0241 123.105C58.5123 123.105 59.7188 124.308 59.7188 125.793C59.7188 127.278 58.5123 128.482 57.0241 128.482Z" fill="#525458"/>
<path fill-rule="evenodd" clip-rule="evenodd" d="M31.6312 172.452C31.6312 172.452 27.1313 172.988 25.8961 171.171C24.6609 169.355 25.3602 169.257 24.814 163.804C24.2679 158.352 24.6609 158.994 24.0566 152.807C23.4522 146.621 21.4599 144.14 20.2696 142.432C19.0793 140.723 11.918 139.832 9.95605 141.778C7.99415 143.724 5.9386 149.604 5.9386 149.604C5.9386 149.604 5.58909 151.434 5.2384 153.707C4.8877 155.981 5.15383 158.018 4.79527 158.466C4.43671 158.914 4.45151 159.018 3.17213 155.69C1.89274 152.362 1.51691 146.808 1.51691 146.808C1.51691 146.808 1.4718 142.865 2.52287 138.287C3.57394 133.709 3.88074 133.582 6.3102 129.959C8.73967 126.336 12.0453 124.087 12.0453 124.087C12.0453 124.087 18.5932 121.088 23.155 122.46C27.7169 123.832 29.7917 129.425 29.7917 129.425L31.6312 138.287L33.4708 149.604C33.4708 149.604 35.2 161.507 34.8775 165.512C34.555 169.518 31.6312 172.452 31.6312 172.452Z" fill="url(#paint5_linear)"/>
<path fill-rule="evenodd" clip-rule="evenodd" d="M207.537 123.259C209.65 122.488 212.949 124.647 218.719 128.773C224.49 132.9 225.193 132.709 228.645 137.676C232.098 142.644 231.577 141.479 233.513 147.506C235.449 153.533 235.407 154.409 235.407 160.62C235.407 166.83 232.029 172.46 232.029 172.46C232.029 172.46 232.206 176.5 227.698 177.843C223.19 179.187 229.304 176.618 213.966 177.843C198.628 179.069 194.371 180.253 183.65 181.363C172.929 182.473 161.996 183.226 161.996 183.226H149.32L142.137 186.229C142.137 186.229 135.483 191.183 128.299 186.229C121.116 181.275 125.194 182.383 124.03 172.46C122.866 162.537 118.459 156.512 115.624 153.515C112.788 150.519 113.362 151.551 111.79 150.274C110.218 148.997 107.128 148.689 103.899 149.514C100.669 150.338 98.5214 152.484 98.5214 152.484C98.5214 152.484 96.2587 154.235 93.4767 160.62C90.6946 167.004 91.2955 167.387 91.2955 167.387L90.6767 175.25L90.1308 176.469C88.3006 180.554 83.86 183.372 80.2021 180.792C79.2947 180.152 78.4153 179.344 77.6493 178.324C74.1233 173.632 77.6493 157.047 77.6493 157.047C77.6493 157.047 77.2646 159.478 79.2554 152.484C81.2462 145.491 81.9903 146.075 85.2021 141.3C88.414 136.524 94.392 132.086 94.392 132.086L103.899 127.324L113.106 124.556C113.106 124.556 123.318 123.176 132.208 125.564C141.098 127.951 147.524 132.086 147.524 132.086L158.299 137.676C158.299 137.676 166.761 142.894 170.763 143.991C174.765 145.089 181.469 144.803 181.469 144.803L196.537 143.991C196.537 143.991 204.779 143.317 208.051 141.3C211.323 139.282 209.635 132.086 209.635 132.086C209.635 132.086 205.424 124.03 207.537 123.259Z" fill="url(#paint6_linear)"/>
<path fill-rule="evenodd" clip-rule="evenodd" d="M207.111 124.315C209.224 123.541 214.574 126.17 220.345 130.313C226.115 134.455 226.968 135.718 230.42 140.705C233.872 145.692 233.799 143.766 234.603 150.911C235.407 158.056 235.407 157.503 235.407 163.737C235.407 169.972 232.029 175.623 232.029 175.623C232.029 175.623 232.206 179.679 227.698 181.027C223.19 182.376 229.304 179.797 213.966 181.027C198.628 182.258 194.371 183.446 183.65 184.561C172.929 185.676 161.996 186.432 161.996 186.432H149.32L142.137 189.445C142.137 189.445 135.483 194.418 128.3 189.445C121.116 184.472 125.194 185.585 124.03 175.623C122.866 165.662 118.459 159.614 115.624 156.605C112.789 153.597 113.362 154.634 111.79 153.352C110.218 152.07 107.128 151.76 103.899 152.588C100.669 153.416 98.5214 155.57 98.5214 155.57C98.5214 155.57 96.2588 157.328 93.4767 163.737C90.6945 170.147 91.2955 170.531 91.2955 170.531L90.6767 178.425L90.1262 179.658C88.2993 183.752 83.8514 186.576 80.1949 183.982C79.29 183.341 78.4133 182.531 77.6493 181.511C74.1233 176.8 77.6493 160.151 77.6493 160.151C77.6493 160.151 77.2646 162.591 79.2554 155.57C81.2462 148.55 81.9903 149.136 85.2021 144.342C88.414 139.549 94.392 135.093 94.392 135.093L103.899 130.313L113.106 127.534C113.106 127.534 123.318 126.149 132.208 128.546C141.098 130.943 147.524 135.093 147.524 135.093L158.299 140.705C158.299 140.705 166.761 145.943 170.763 147.044C174.765 148.146 181.469 147.86 181.469 147.86L196.537 147.044C196.537 147.044 204.779 146.367 208.051 144.342C211.323 142.318 209.635 135.093 209.635 135.093C209.635 135.093 204.998 125.088 207.111 124.315Z" fill="url(#paint7_linear)"/>
<path fill-rule="evenodd" clip-rule="evenodd" d="M147.8 154.292C142.885 154.292 135.168 147.481 135.168 142.665C135.168 137.85 138.196 138.165 143.111 138.165C148.026 138.165 155.647 141.551 155.647 146.367C155.647 151.183 152.715 154.292 147.8 154.292Z" fill="#AB4141"/>
<path fill-rule="evenodd" clip-rule="evenodd" d="M228.028 147.267C225.799 148.554 221.667 145.961 219.892 142.886C218.116 139.811 215.272 136.005 217.501 134.718C219.729 133.431 225.074 136.875 226.85 139.951C228.625 143.026 230.256 145.98 228.028 147.267Z" fill="#AB4141"/>
<path fill-rule="evenodd" clip-rule="evenodd" d="M66.2493 126.361C64.1733 125.624 61.8093 124.891 59.4288 124.911C57.0482 124.932 57.7288 126.435 57.7288 126.435C57.7288 126.435 63.3879 126.788 64.2114 126.87C65.0348 126.952 66.0576 127.263 66.0576 127.263C66.0576 127.263 68.3253 127.097 66.2493 126.361Z" fill="#525458"/>
<path fill-rule="evenodd" clip-rule="evenodd" d="M129.181 178.776C125.918 187.13 136.557 192.25 145.456 191.146C151.457 190.401 158.832 189.691 166.762 189.391C186.64 188.641 195.381 188.275 205.761 187.878C216.142 187.482 219.233 187.117 226.631 186.054C234.029 184.992 229.883 186.188 233.772 184.375C237.66 182.562 239.066 177.024 239.066 177.024C239.066 177.024 236.111 169.394 233.78 171.011C231.449 172.628 224.45 177.033 209.302 176.277C194.153 175.52 180.262 176.295 180.262 176.295C180.262 176.295 166.271 176.464 153.655 177.077C141.039 177.69 131.892 171.834 129.181 178.776Z" fill="#E3E4E5"/>
<path fill-rule="evenodd" clip-rule="evenodd" d="M166.425 189.781C165.235 189.781 164.27 186.17 164.27 181.715C164.27 177.261 165.235 173.65 166.425 173.65C167.616 173.65 168.581 177.261 168.581 181.715C168.581 186.17 167.616 189.781 166.425 189.781Z" fill="#363638"/>
<path fill-rule="evenodd" clip-rule="evenodd" d="M224.629 187.63C223.438 187.63 222.473 184.26 222.473 180.102C222.473 175.945 223.438 172.574 224.629 172.574C225.82 172.574 226.785 175.945 226.785 180.102C226.785 184.26 225.82 187.63 224.629 187.63Z" fill="#363638"/>
<defs>
<linearGradient id="paint0_linear" x1="78.0871" y1="144.634" x2="5.87699" y2="144.634" gradientUnits="userSpaceOnUse">
<stop stop-color="#D95050"/>
<stop offset="1" stop-color="#AE3F3F"/>
</linearGradient>
<linearGradient id="paint1_linear" x1="106.066" y1="109.124" x2="106.066" y2="141.387" gradientUnits="userSpaceOnUse">
<stop stop-color="#CBCBCB"/>
<stop offset="1" stop-color="#D8D8D8"/>
</linearGradient>
<linearGradient id="paint2_linear" x1="213.93" y1="162.953" x2="86.754" y2="162.953" gradientUnits="userSpaceOnUse">
<stop stop-color="#D95050"/>
<stop offset="1" stop-color="#AE3F3F"/>
</linearGradient>
<linearGradient id="paint3_linear" x1="82.3865" y1="182.265" x2="29.5761" y2="182.265" gradientUnits="userSpaceOnUse">
<stop stop-color="#D95050"/>
<stop offset="1" stop-color="#AE3F3F"/>
</linearGradient>
<linearGradient id="paint4_linear" x1="136.322" y1="178.019" x2="13.4574" y2="178.019" gradientUnits="userSpaceOnUse">
<stop stop-color="#D95050"/>
<stop offset="1" stop-color="#AE3F3F"/>
</linearGradient>
<linearGradient id="paint5_linear" x1="34.9491" y1="172.609" x2="1.53845" y2="172.609" gradientUnits="userSpaceOnUse">
<stop stop-color="#D95050"/>
<stop offset="1" stop-color="#AE3F3F"/>
</linearGradient>
<linearGradient id="paint6_linear" x1="235.507" y1="188.751" x2="75.998" y2="188.751" gradientUnits="userSpaceOnUse">
<stop stop-color="#BD4141"/>
<stop offset="1" stop-color="#AE3F3F"/>
</linearGradient>
<linearGradient id="paint7_linear" x1="235.507" y1="191.978" x2="75.998" y2="191.978" gradientUnits="userSpaceOnUse">
<stop stop-color="#D95050"/>
<stop offset="1" stop-color="#AE3F3F"/>
</linearGradient>
</defs>
</svg>
