<svg width="46" height="26" viewBox="0 0 46 26" fill="none" xmlns="http://www.w3.org/2000/svg">
<path fill-rule="evenodd" clip-rule="evenodd" d="M45.3783 16.8192V10.4477L45.3634 10.433C45.2466 5.82042 44.1302 3.31857 44.1302 3.31857C44.1302 1.48339 42.6284 0 40.7687 0H6.03685C4.18452 0 2.68028 1.48339 2.68028 3.31857C2.68028 3.31857 1.55645 5.81796 1.44457 10.433L1.43214 10.4453V11.3998L0.504729 12.0836V12.1624C0.500622 12.1624 0.49727 12.1609 0.494256 12.1595C0.491795 12.1584 0.489559 12.1574 0.487324 12.1574C0.218799 12.1574 0 12.8118 0 13.6113C0 14.4108 0.218799 15.0652 0.487324 15.0652C0.489559 15.0652 0.491795 15.0642 0.494256 15.0631C0.49727 15.0618 0.500622 15.0603 0.504729 15.0603V15.1759L1.42965 15.9262V18.305C1.42965 18.4871 1.44954 18.6617 1.47938 18.8389C1.01692 18.8635 0.651423 19.2866 0.651423 19.8057V20.984C0.651423 21.5277 1.04924 21.9582 1.53656 21.9582H5.96226C6.22333 21.9582 6.46202 21.8229 6.62612 21.6212H7.31732C7.31732 18.7528 9.65698 16.428 12.5511 16.4084C15.4477 16.428 17.7898 18.7528 17.7898 21.6212H29.0132C29.0132 18.7528 31.3479 16.428 34.247 16.4084C37.1411 16.428 39.4807 18.7528 39.4807 21.6212H42.0118C42.7925 21.6212 43.5161 21.3579 44.0904 20.9053H45.1347C45.6046 20.9053 45.9999 20.5264 45.9999 20.0517V17.6433C46.0049 17.2472 45.7339 16.92 45.3783 16.8192ZM12.5312 16.9643C10.0051 16.9643 7.96129 18.9815 7.96129 21.4809C7.96129 23.9729 10.0051 26 12.5312 26C15.0524 26 17.0961 23.9729 17.0961 21.4809C17.0961 18.9865 15.0449 16.9643 12.5312 16.9643ZM29.6522 21.4809C29.6522 18.9815 31.696 16.9643 34.2171 16.9643C36.7433 16.9643 38.7845 18.9865 38.7895 21.4809C38.7895 23.9729 36.7457 26 34.2171 26C31.696 26 29.6522 23.9729 29.6522 21.4809ZM31.3131 21.4809C31.3131 23.0701 32.6109 24.3542 34.2171 24.3542C35.8208 24.3542 37.1212 23.0701 37.1286 21.4809C37.1286 19.8844 35.8233 18.6027 34.2171 18.6027C32.6085 18.6027 31.3131 19.8918 31.3131 21.4809ZM9.62465 21.4809C9.62465 23.0701 10.925 24.3542 12.5312 24.3542C14.1349 24.3542 15.4353 23.0701 15.4377 21.4809C15.4377 19.8844 14.1374 18.6027 12.5312 18.6027C10.92 18.6027 9.62465 19.8918 9.62465 21.4809ZM2.75239 9.56212H12.3596C12.6878 9.56212 12.9539 9.27921 12.9439 8.94465H12.9414V3.42927C12.9414 3.08979 12.6829 2.81673 12.3522 2.81673H4.00302C3.96573 3.01845 3.94335 3.23493 3.94335 3.45141C3.94335 3.45141 2.9861 5.58918 2.75239 9.56212ZM25.2041 9.07011C25.2041 9.40959 24.9406 9.68758 24.6198 9.68758H14.9802C14.6521 9.68758 14.3935 9.40959 14.3935 9.07011V3.55966C14.3935 3.22017 14.6545 2.94219 14.9802 2.94219H24.6148C24.9406 2.94219 25.1991 3.22017 25.1991 3.55966L25.2041 9.07011ZM36.6587 9.68758C36.9919 9.68758 37.2505 9.40959 37.2505 9.07011V3.55966C37.2505 3.22017 36.9919 2.94219 36.6587 2.94219H27.0241C26.6984 2.94219 26.4398 3.22017 26.4398 3.55966V9.07011C26.4398 9.40959 26.6984 9.68758 27.0241 9.68758H36.6587Z" fill="#D95050"/>
</svg>
