<svg width="44" height="28" viewBox="0 0 44 28" fill="none" xmlns="http://www.w3.org/2000/svg">
<path fill-rule="evenodd" clip-rule="evenodd" d="M31.9562 17.4098C33.0516 15.8169 34.876 14.771 36.9389 14.771C40.2811 14.771 43 17.514 43 20.8855C43 24.257 40.2811 27 36.9389 27C33.5969 27 30.8778 24.2571 30.8778 20.8855C30.8778 20.6181 30.8968 20.3551 30.93 20.0965L29.3543 19.4157L26.7111 22.0821C26.5733 22.2212 26.3907 22.2928 26.2066 22.2928C26.0685 22.2928 25.9296 22.2525 25.8083 22.17L19.2481 17.7097C19.2206 17.691 19.1944 17.6703 19.1698 17.648C17.2574 15.9121 14.4635 15.5477 12.4564 15.5477C12.1561 15.5477 11.8735 15.5561 11.6145 15.5692C14.0897 18.2864 17.559 17.9484 17.559 17.9484L20.4826 20.1468H13.0765C13.1054 20.3891 13.1223 20.6354 13.1223 20.8855C13.1223 24.257 10.4032 27 7.06103 27C3.71901 27 1 24.2571 1 20.8855C1 19.8828 1.24202 18.9367 1.66791 18.1008C1.03422 18.4026 0.836638 17.8341 1.22935 17.3067C1.22935 17.3067 3.11264 13.8786 8.34874 14.5871L6.75633 13.1111C6.64043 13.0036 6.563 12.8605 6.53616 12.7039C6.46733 12.3022 6.41912 11.9136 6.3882 11.5366H7.67723C8.77614 9.68085 6.82941 8.39901 6.82941 8.39901C6.67843 8.57105 6.55847 8.75568 6.46185 8.94556C6.82487 6.49738 7.98174 4.74805 9.07148 3.59906C10.7738 1.80414 12.6502 1.07639 12.7293 1.04635C12.8114 1.01507 12.8965 1 12.9809 1C13.187 1 13.3881 1.09031 13.5262 1.25568C13.7212 1.48885 13.749 1.82054 13.5962 2.08347C12.8626 3.34461 12.4935 4.26968 12.331 4.94632L13.393 4.75177C13.761 4.68453 14.1138 4.93068 14.1806 5.30204C14.2474 5.6733 14.0032 6.02903 13.6351 6.09655L12.3171 6.33802C12.3364 6.3878 12.3572 6.43167 12.3788 6.46972C12.6778 6.99643 13.4453 7.05327 13.7614 7.05327C13.8146 7.05327 13.858 7.05175 13.8881 7.05013C16.6437 6.2704 18.6342 5.95798 18.7182 5.94501L18.724 5.94405C19.0856 5.89112 19.444 5.86432 19.789 5.86432C21.4936 5.86432 23.0009 6.52026 24.148 7.76128C24.6205 8.27236 24.9408 8.78677 25.1358 9.15213C28.1182 8.76017 29.7346 7.07168 29.7493 7.05585C29.8843 6.90965 30.0734 6.82668 30.2714 6.82668H30.2778L38.191 6.89897C38.4663 6.90154 38.7155 7.06367 38.8314 7.31563L39.2614 8.25071C39.4262 8.60901 39.2737 9.03416 38.92 9.20334L38.1735 9.5603H39.0305C39.3457 9.5603 39.601 9.81789 39.601 10.1357C39.601 10.4536 39.3457 10.7112 39.0305 10.7112H38.664L40.9686 13.4725C41.1715 13.7157 41.1406 14.0787 40.8996 14.2834C40.7925 14.3743 40.6622 14.4186 40.5325 14.4186C40.3699 14.4186 40.2086 14.3489 40.0958 14.2138L37.1724 10.7113H36.5893L35.3205 13.6621L30.3786 15.7306V16.7281L31.9562 17.4098ZM34.8451 11.1523L30.3787 13.2885V14.1729L34.2414 12.556L34.8451 11.1523ZM7.06103 24.1227C5.29175 24.1227 3.85241 22.6705 3.85241 20.8856C3.85241 19.1007 5.29184 17.6485 7.06103 17.6485C7.13572 17.6485 7.20955 17.6521 7.28301 17.6571L5.9556 20.4178L8.52193 21.6736L9.74913 19.1211C10.078 19.6291 10.2698 20.235 10.2698 20.8856C10.2699 22.6705 8.83041 24.1227 7.06103 24.1227ZM33.7598 21.3191C33.9707 22.8998 35.3155 24.1227 36.9389 24.1227C38.7082 24.1227 40.1477 22.6704 40.1477 20.8855C40.1477 19.1006 38.7082 17.6484 36.9389 17.6484C36.0596 17.6484 35.262 18.0074 34.6818 18.5874L37.3105 19.7232L36.1874 22.3681L33.7598 21.3191Z" fill="#D95050"/>
<path fill-rule="evenodd" clip-rule="evenodd" d="M12.5516 0.578973C12.6914 0.525764 12.8368 0.5 12.9809 0.5C13.3326 0.5 13.6751 0.654077 13.9098 0.934981C14.2401 1.33 14.2868 1.8904 14.0284 2.33479C13.5648 3.13175 13.2567 3.78034 13.0568 4.30504L13.3029 4.25995C13.9464 4.14237 14.5574 4.57319 14.6727 5.21345M12.5516 0.578973C12.4398 0.621485 10.4846 1.38256 8.7087 3.25498C7.56596 4.45984 6.34874 6.29959 5.96726 8.87222C5.93131 9.11463 6.07636 9.34737 6.30982 9.42189C6.54328 9.4964 6.79634 9.39073 6.90747 9.17231C6.91325 9.16096 6.91912 9.14965 6.92508 9.13838C7.03222 9.24943 7.14494 9.38435 7.24281 9.53912C7.48586 9.92349 7.64002 10.4218 7.37298 11.0366H6.3882C6.24849 11.0366 6.11515 11.0951 6.02049 11.1978C5.92582 11.3006 5.87846 11.4382 5.88988 11.5775C5.92197 11.9688 5.972 12.372 6.04334 12.7883C6.08866 13.0527 6.21952 13.2952 6.41636 13.4778L6.96976 13.9907C4.98605 13.9896 3.53969 14.5881 2.54354 15.2683C1.93634 15.683 1.50387 16.1227 1.22118 16.4622C1.07973 16.6321 0.975304 16.7775 0.904795 16.883C0.869522 16.9358 0.842676 16.9787 0.823874 17.0098C0.818366 17.0189 0.813545 17.027 0.809404 17.034C0.571593 17.3665 0.424601 17.8277 0.610678 18.2262C0.677605 18.3696 0.782986 18.488 0.916947 18.5686C0.647907 19.29 0.5 20.0707 0.5 20.8855C0.5 24.5291 3.43875 27.5 7.06103 27.5C10.6835 27.5 13.6223 24.529 13.6223 20.8855C13.6223 20.8054 13.6207 20.7258 13.6176 20.6468H20.4826C20.6977 20.6468 20.8887 20.5092 20.9569 20.3052C21.025 20.1012 20.955 19.8764 20.7831 19.7472L17.8595 17.5487C17.7596 17.4736 17.6353 17.4387 17.5109 17.4507L17.5072 17.451L17.4847 17.4527C17.4635 17.4542 17.43 17.4562 17.3854 17.458C17.2961 17.4615 17.1625 17.464 16.993 17.459C16.6536 17.4489 16.1738 17.409 15.6209 17.2891C14.7915 17.1093 13.8076 16.7521 12.883 16.0534C14.7995 16.1052 17.1895 16.5257 18.8337 18.0182C18.8748 18.0553 18.9197 18.091 18.967 18.1231C18.967 18.1231 18.967 18.1232 18.967 18.1231L25.5271 22.5834C25.7335 22.7238 25.9708 22.7928 26.2066 22.7928C26.5202 22.7928 26.8319 22.6706 27.0662 22.4341C27.0661 22.4342 27.0662 22.434 27.0662 22.4341L29.4692 20.01L30.3957 20.4103C30.3841 20.5667 30.3778 20.7251 30.3778 20.8855C30.3778 24.5291 33.3166 27.5 36.9389 27.5C40.5614 27.5 43.5 24.529 43.5 20.8855C43.5 17.242 40.5614 14.271 36.9389 14.271C34.8504 14.271 32.99 15.2604 31.7892 16.793L30.8786 16.3995V16.0633L35.5135 14.1233C35.6331 14.0732 35.7286 13.9787 35.7798 13.8596L36.9185 11.2113H36.9384L39.7119 14.5342C39.9231 14.7872 40.2271 14.9186 40.5325 14.9186C40.7768 14.9186 41.0227 14.8347 41.2231 14.6646C41.6739 14.2818 41.7308 13.6054 41.3524 13.1521L39.5969 11.0487C39.9006 10.858 40.101 10.5189 40.101 10.1357C40.101 9.76207 39.9103 9.43022 39.6192 9.23718C39.8497 8.89431 39.9 8.44259 39.7157 8.04183C39.7157 8.04184 39.7157 8.04182 39.7157 8.04183L39.2857 7.10675C39.0897 6.68059 38.6664 6.40339 38.1957 6.39899L30.2824 6.3267L30.2714 6.32668C29.9332 6.32668 29.6111 6.46849 29.382 6.71664L29.7493 7.05585L29.3835 6.71503C29.3842 6.71429 29.3833 6.71533 29.382 6.71664C29.3343 6.76489 27.9426 8.17258 25.4011 8.6065C25.1917 8.25746 24.9008 7.83908 24.5152 7.42189C23.2725 6.07748 21.6317 5.36432 19.789 5.36432C19.4184 5.36432 19.0358 5.39308 18.6516 5.44932L18.6425 5.45075C18.6417 5.45087 18.6403 5.45112 18.6392 5.45129C18.5157 5.47046 16.637 5.76845 14.0157 6.49514C14.4887 6.27186 14.7693 5.74988 14.6727 5.21345M38.7043 8.75229C38.8093 8.70204 38.8588 8.57193 38.8071 8.45962L38.3772 7.52458C38.3414 7.44686 38.2664 7.39974 38.1865 7.39895C38.1864 7.39895 38.1865 7.39895 38.1865 7.39895M30.2755 7.32668H30.2778L38.1865 7.39895M30.2755 7.32668H30.2714C30.2137 7.32668 30.1575 7.35081 30.1167 7.39505L30.1152 7.39666C30.0584 7.4576 28.343 9.23492 25.2009 9.64786C24.9945 9.675 24.7928 9.57131 24.6947 9.38759C24.5142 9.04942 24.2172 8.57275 23.7809 8.10067C22.7293 6.96305 21.3556 6.36432 19.789 6.36432C19.471 6.36432 19.1384 6.38894 18.8009 6.43813L18.7945 6.43918C18.7239 6.45008 16.7545 6.75867 14.0242 7.53124C13.9886 7.54132 13.952 7.54741 13.915 7.5494C13.8764 7.55149 13.824 7.55327 13.7614 7.55327C13.58 7.55327 13.2551 7.53772 12.921 7.43821C12.5918 7.34017 12.1837 7.13881 11.944 6.71657C11.9096 6.65586 11.8783 6.58941 11.8508 6.51864C11.797 6.37969 11.808 6.22398 11.8807 6.09393C11.9534 5.96388 12.0804 5.87305 12.227 5.8462L13.5449 5.60475M17.4048 18.458C17.296 18.4618 17.1464 18.4639 16.9635 18.4585C16.575 18.447 16.0328 18.4016 15.409 18.2664C14.162 17.996 12.5713 17.3621 11.2448 15.9059C11.1146 15.763 11.0785 15.5577 11.1521 15.3789C11.2258 15.2 11.3959 15.0797 11.5891 15.0699C11.8557 15.0563 12.1468 15.0477 12.4564 15.0477C14.4936 15.0477 17.4499 15.4115 19.5058 17.2777C19.5141 17.2852 19.5215 17.2909 19.5291 17.2961L26.0895 21.7565C26.1257 21.7812 26.1662 21.7928 26.2066 21.7928C26.261 21.7928 26.3146 21.7719 26.3557 21.7303L28.9992 19.0637C29.144 18.9175 29.3637 18.8751 29.5526 18.9567L31.1283 19.6375C31.333 19.726 31.4544 19.9392 31.4259 20.1604C31.3951 20.4001 31.3778 20.6417 31.3778 20.8855C31.3778 23.9851 33.8771 26.5 36.9389 26.5C40.0008 26.5 42.5 23.985 42.5 20.8855C42.5 17.786 40.0008 15.271 36.9389 15.271C35.0496 15.271 33.3754 16.2284 32.3682 17.6931C32.2329 17.89 31.9772 17.9636 31.7579 17.8688L30.1803 17.1871C29.9972 17.108 29.8786 16.9276 29.8786 16.7281V15.7306C29.8786 15.529 29.9996 15.3472 30.1855 15.2694L34.941 13.2789L36.1299 10.5138C36.2089 10.3302 36.3895 10.2113 36.5893 10.2113H37.1724C37.3206 10.2113 37.4612 10.2771 37.5562 10.3909L40.4796 13.8934C40.494 13.9106 40.5128 13.9186 40.5325 13.9186C40.5475 13.9186 40.5622 13.9139 40.576 13.9023C40.6072 13.8758 40.6123 13.8259 40.5847 13.7929L38.2801 11.0316C38.1558 10.8826 38.1289 10.6751 38.2111 10.4993C38.2934 10.3235 38.4699 10.2112 38.664 10.2112H39.0305C39.0654 10.2112 39.101 10.1816 39.101 10.1357C39.101 10.0898 39.0654 10.0603 39.0305 10.0603H38.1735C37.94 10.0603 37.7376 9.89864 37.6859 9.67089C37.6343 9.44314 37.7472 9.20997 37.9578 9.10922L38.7043 8.75229M17.4048 18.458L18.9857 19.6468H13.0765C12.9336 19.6468 12.7975 19.708 12.7026 19.8148C12.6077 19.9217 12.5631 20.0641 12.58 20.2061C12.6069 20.4315 12.6223 20.6578 12.6223 20.8855C12.6223 23.985 10.123 26.5 7.06103 26.5C3.99928 26.5 1.5 23.9851 1.5 20.8855C1.5 19.9642 1.72221 19.0956 2.11342 18.3278C2.21064 18.1369 2.17555 17.9054 2.02615 17.752C1.92137 17.6443 1.77666 17.5919 1.63288 17.602C1.64549 17.5847 1.65699 17.5667 1.6673 17.548M7.15908 8.01943C7.62805 6.21104 8.55276 4.87257 9.43426 3.94313C11.0631 2.22572 12.8607 1.53129 12.9069 1.51372C12.9313 1.50444 12.9563 1.5 12.9809 1.5C13.0413 1.5 13.1009 1.52648 13.1425 1.5762C13.2021 1.64753 13.2113 1.75068 13.1639 1.83216C12.4155 3.11876 12.0224 4.09013 11.8448 4.82955C11.8053 4.99401 11.8516 5.16729 11.9679 5.2901C12.0842 5.41291 12.2547 5.46861 12.4211 5.43813L13.4829 5.24362C13.4829 5.24363 13.4829 5.24361 13.4829 5.24362M7.15908 8.01943C7.17429 8.03038 7.19229 8.04361 7.21272 8.05907C7.27357 8.10514 7.3566 8.17156 7.45136 8.25705C7.63917 8.42651 7.88201 8.67889 8.08801 9.00467C8.51206 9.67527 8.77484 10.6643 8.10746 11.7914C8.01744 11.9434 7.85389 12.0366 7.67723 12.0366H6.94255C6.96645 12.2276 6.99512 12.4219 7.02897 12.6195C7.03735 12.6682 7.06132 12.712 7.09623 12.7444M35.1916 10.7917C35.3418 10.9361 35.3868 11.1584 35.3045 11.3498L34.7007 12.7535C34.6495 12.8726 34.5541 12.9672 34.4345 13.0172L30.5718 14.6342C30.4174 14.6988 30.241 14.6819 30.1017 14.5892C29.9624 14.4965 29.8787 14.3403 29.8787 14.1729V13.2885C29.8787 13.096 29.9892 12.9205 30.1629 12.8374L34.6294 10.7012C34.8173 10.6113 35.0413 10.6474 35.1916 10.7917ZM35.6683 18.469L37.5088 19.2642C37.7612 19.3732 37.8782 19.6655 37.7707 19.9186L36.6476 22.5635C36.5956 22.6861 36.4968 22.7828 36.3732 22.8323C36.2495 22.8818 36.1113 22.8799 35.9891 22.8271L34.5726 22.215C35.0365 23.0552 35.9254 23.6227 36.9389 23.6227C38.4279 23.6227 39.6477 22.3984 39.6477 20.8855C39.6477 19.3726 38.4279 18.1484 36.9389 18.1484C36.4803 18.1484 36.0478 18.2642 35.6683 18.469ZM34.3283 18.2338C34.9975 17.5648 35.9205 17.1484 36.9389 17.1484C38.9884 17.1484 40.6477 18.8286 40.6477 20.8855C40.6477 22.9424 38.9884 24.6227 36.9389 24.6227C35.0577 24.6227 33.5072 23.207 33.2642 21.3852C33.2404 21.2067 33.3145 21.0291 33.4581 20.9204C33.6018 20.8117 33.7928 20.7887 33.9582 20.8602L35.9238 21.7095L36.6561 19.9851L34.4835 19.0464C34.3314 18.9807 34.2217 18.8439 34.1907 18.6812C34.1596 18.5185 34.2111 18.3509 34.3283 18.2338ZM3.35241 20.8856C3.35241 18.8287 5.01155 17.1485 7.06103 17.1485C7.15113 17.1485 7.23724 17.1528 7.31733 17.1583C7.48276 17.1697 7.63179 17.2623 7.71518 17.4057C7.79857 17.549 7.80548 17.7243 7.73362 17.8738L6.62139 20.187L8.28946 21.0032L9.2985 18.9044C9.37686 18.7415 9.53709 18.6335 9.71755 18.6221C9.89801 18.6107 10.0706 18.6976 10.1688 18.8494C10.5483 19.4356 10.7698 20.1353 10.7698 20.8856C10.77 22.9425 9.11065 24.6227 7.06103 24.6227C5.01145 24.6227 3.35241 22.9425 3.35241 20.8856ZM6.45911 18.2168C5.25701 18.4939 4.35241 19.5827 4.35241 20.8856C4.35241 22.3985 5.57205 23.6227 7.06103 23.6227C8.55016 23.6227 9.76993 22.3985 9.76985 20.8856C9.76985 20.6998 9.75141 20.5185 9.71631 20.3433L8.97255 21.8903C8.91483 22.0103 8.81159 22.1024 8.68574 22.146C8.55988 22.1897 8.42181 22.1813 8.30216 22.1227L5.73583 20.8669C5.489 20.7461 5.3859 20.4488 5.50498 20.2011L6.45911 18.2168Z" fill="#D95050"/>
</svg>
