<svg width="45" height="26" viewBox="0 0 45 26" fill="none" xmlns="http://www.w3.org/2000/svg">
<path fill-rule="evenodd" clip-rule="evenodd" d="M23.1566 19.1429C23.9277 18.381 24.8755 18 26 18C27.1245 18 28.0723 18.381 28.8434 19.1429C29.6145 19.9048 30 20.8571 30 22C30 23.1429 29.6145 24.0952 28.8434 24.8571C28.0723 25.619 27.1245 26 26 26C24.8755 26 23.9277 25.619 23.1566 24.8571C22.3855 24.0952 22 23.1429 22 22C22 20.8571 22.3855 19.9048 23.1566 19.1429ZM26 24.0952C26.6104 24.0952 27.1245 23.8889 27.5422 23.4762C27.9598 23.0635 28.1687 22.5714 28.1687 22C28.1687 21.4286 27.9598 20.9365 27.5422 20.5238C27.1245 20.1111 26.6105 19.9048 26 19.9048C25.3898 19.9048 24.8757 20.1111 24.4578 20.5238C24.0402 20.9365 23.8313 21.4286 23.8313 22C23.8313 22.5714 24.0402 23.0635 24.4578 23.4762C24.8755 23.8889 25.3896 24.0952 26 24.0952Z" fill="#010002"/>
<path fill-rule="evenodd" clip-rule="evenodd" d="M43.9482 3.32245C43.2469 2.42449 42.2866 1.76602 41.0671 1.34694C40.3354 1.10745 38.2013 0.823159 34.6646 0.493878C31.128 0.164596 27.9878 0 25.2439 0C22.6219 0 19.436 0.164596 15.686 0.493878C11.936 0.823159 9.69512 1.07755 8.96341 1.25714L8.41463 1.43673C8.23171 1.49663 7.89631 1.67622 7.40854 1.97551C6.92076 2.2748 6.4939 2.60408 6.12805 2.96327C5.7622 3.32245 5.4268 3.84623 5.12195 4.53469C4.8171 5.22316 4.66463 5.98642 4.66463 6.82449V18.4082C4.66463 19.6054 4.93902 20.2041 5.4878 20.2041H0V22H20.5793C20.5793 20.683 21.0366 19.5755 21.9512 18.6776C22.8659 17.7796 23.9939 17.3306 25.3354 17.3306C26.6769 17.3306 27.8049 17.7796 28.7195 18.6776C29.6341 19.5755 30.0915 20.683 30.0915 22H41.5244C42.439 22 43.2469 21.6408 43.9482 20.9224C44.6494 20.2041 45 19.366 45 18.4082V6.19592C45 5.17826 44.6494 4.22041 43.9482 3.32245ZM17.8354 10.4163C17.8354 10.8354 17.622 11.0449 17.1951 11.0449H11.0671C10.5793 11.0449 10.3354 10.8653 10.3354 10.5061V6.19592C10.3354 6.01633 10.4116 5.85173 10.564 5.70204C10.7165 5.55235 10.8841 5.47755 11.0671 5.47755H17.1951C17.622 5.47755 17.8354 5.71704 17.8354 6.19592V10.4163ZM39.6037 11.0449C40.0914 11.0449 40.3354 10.8653 40.3354 10.5061V6.19592C40.3354 5.71704 40.0914 5.47755 39.6037 5.47755H25.9756C25.5487 5.47755 25.3354 5.71704 25.3354 6.19592V10.5061C25.3354 10.8653 25.5487 11.0449 25.9756 11.0449H39.6037Z" fill="#010002"/>
</svg>
