<svg width="45" height="30" viewBox="0 0 45 30" fill="none" xmlns="http://www.w3.org/2000/svg">
<path fill-rule="evenodd" clip-rule="evenodd" d="M9.5 19C12.5382 19 15 21.4622 15 24.5C15 27.5382 12.5382 30 9.5 30C6.4622 30 4 27.5382 4 24.5C4 21.4622 6.4622 19 9.5 19ZM9.5 22.6839C8.49698 22.6839 7.68388 23.4974 7.68388 24.5C7.68388 25.5057 8.49698 26.3184 9.5 26.3175C10.5044 26.3175 11.3179 25.5039 11.3179 24.5C11.3179 23.4974 10.503 22.6839 9.5 22.6839Z" fill="#D95050"/>
<path fill-rule="evenodd" clip-rule="evenodd" d="M29 16.1512V5H40.6445L44 10.0752V18.2741H38.4737C37.802 18.2741 37.1979 18.5552 36.7662 19C35.9406 17.7262 34.2186 16.0771 30.8248 16.0771C29.3023 16.0771 29 16.1512 29 16.1512ZM35.3158 13.5893H41.6316V9.83205L40.0526 7.34285H35.3158V13.5893Z" fill="#D95050"/>
<path d="M2.37127 12.4446C2.37127 12.4446 15.6924 14.825 17.4588 21H23.5632C23.5632 21 24.3212 17.1112 27.4495 16.0423V3.11105H41.6536L44 0H25.8349L23.6149 4.66657H0V7.77761H2.42202L2.37127 12.4446Z" fill="#D95050"/>
<path d="M38.7778 20C38.416 20 38.1231 20.2451 38.0382 20.5691C38.0227 20.6291 38 20.6857 38 20.75V22.25C38 22.664 38.348 23 38.7778 23H44.2222C44.6511 23 45 22.664 45 22.25V20.75C45 20.3364 44.6511 20 44.2222 20H38.7778Z" fill="#D95050"/>
<path fill-rule="evenodd" clip-rule="evenodd" d="M35.9945 24.3723C35.9973 24.4145 36 24.4567 36 24.5C36 27.5382 33.5393 30 30.5007 30C27.4621 30 25 27.5382 25 24.5C25 21.4622 27.4621 19 30.5007 19C32.9722 19 35.0611 20.6293 35.7557 22.8716C35.894 23.3187 35.9704 23.792 35.9897 24.2804C35.9906 24.3113 35.9926 24.3418 35.9945 24.3723ZM30.4993 22.6839C29.4962 22.6839 28.683 23.4974 28.683 24.5C28.683 25.5057 29.4962 26.3184 30.4993 26.3175C31.5043 26.3175 32.3175 25.5039 32.3175 24.5C32.3175 23.4974 31.5034 22.6839 30.4993 22.6839Z" fill="#D95050"/>
</svg>
