<svg width="50" height="27" viewBox="0 0 50 27" fill="none" xmlns="http://www.w3.org/2000/svg">
<path fill-rule="evenodd" clip-rule="evenodd" d="M48.3388 18.6316H47.896L47.8462 18.4425C46.4687 13.2043 41.79 9.55959 36.4416 9.55959H36.1725L35.071 4.53769C34.4902 1.88646 32.1703 0 29.4922 0H25.6701C15.1046 0 5.76716 6.96511 2.62167 17.1916L2.17881 18.6316H1.66108C0.743068 18.6316 0 19.3855 0 20.3157C0 21.2457 0.742966 22 1.66108 22H3.01271C2.98985 20.8183 3.31769 19.6637 3.93397 18.6317C4.25704 18.0914 4.6302 17.574 5.10709 17.1244C6.53613 15.7757 8.49235 14.9879 10.7617 14.8457C13.3771 14.6811 15.8622 16.2961 17.0772 18.6317C17.5069 19.4564 17.7845 20.3659 17.8446 21.3257C17.8593 21.5583 17.8314 21.7821 17.7863 22H33.0672C33.0446 20.8183 33.3722 19.6637 33.9888 18.6317C34.3114 18.0914 34.6849 17.574 35.1613 17.1244C36.5909 15.7757 38.5473 14.9879 40.8165 14.8457C43.4139 14.6811 45.909 16.2961 47.1285 18.6317C47.5605 19.4564 47.8393 20.3659 47.8994 21.3257C47.9142 21.5583 47.8861 21.7821 47.8411 22H48.3387C49.2568 22 50 21.2458 50 20.3157C50 19.3855 49.2569 18.6316 48.3388 18.6316ZM23.201 3.48338C23.201 2.75073 23.7689 2.1489 24.4907 2.11759C24.69 2.10945 24.8899 2.10451 25.0891 2.10451H28.0517C30.1278 2.10451 31.9218 3.56567 32.3746 5.61889L32.8564 7.81878C32.9443 8.22326 32.8467 8.6468 32.5919 8.97012C32.3355 9.29323 31.948 9.48141 31.539 9.48141H24.549C23.8047 9.48141 23.201 8.86979 23.201 8.1148V3.48338ZM11.2909 8.99731C11.4173 9.29076 11.701 9.48069 12.0175 9.48069V9.48079H19.9747C20.719 9.48079 21.3225 8.86876 21.3225 8.11397V4.28019C21.3225 3.84615 21.12 3.43806 20.7744 3.17994C20.4305 2.92254 19.9845 2.84622 19.5756 2.97435C16.4558 3.95203 13.6526 5.73322 11.4398 8.12963C11.224 8.36313 11.1657 8.70437 11.2909 8.99731Z" fill="#D95050"/>
<path fill-rule="evenodd" clip-rule="evenodd" d="M9.89028 15.0083C12.9417 14.8287 15.8012 17.5709 15.9975 20.9271C16.0527 21.875 15.1777 22.7439 14.2917 22.8325C14.2465 23.1105 14.1799 23.3793 14.0935 23.6404C13.448 25.5931 11.7259 27 9.67918 27C7.81485 27 6.21735 25.8294 5.45677 24.1456C5.33581 23.8789 5.24127 23.5984 5.16643 23.3069C5.14617 23.3144 5.126 23.3222 5.10583 23.3299C4.98902 23.3748 4.87252 23.4195 4.74292 23.4283C4.7095 23.4308 4.67428 23.4317 4.64067 23.4317C3.78284 23.4317 3.06408 22.7177 3.00975 21.7889C2.91041 20.0866 3.57374 18.3936 4.82616 17.145C6.09459 15.8821 7.84536 15.1434 9.89028 15.0083ZM7.13751 21.967C7.13751 23.471 8.27508 24.6905 9.67928 24.6905C11.0836 24.6905 12.2227 23.471 12.2227 21.967C12.2227 20.4638 11.0836 19.2443 9.67928 19.2443C8.27508 19.2443 7.13751 20.4638 7.13751 21.967Z" fill="#D95050"/>
<path fill-rule="evenodd" clip-rule="evenodd" d="M40.8903 15.0083C43.9383 14.8287 46.8013 17.5709 46.9975 20.9271C47.0531 21.8813 46.1832 22.7582 45.2912 22.8367C45.2459 23.1132 45.1796 23.3808 45.0936 23.6404C44.448 25.5931 42.726 27 40.6792 27C38.8149 27 37.2174 25.8294 36.4569 24.1456C36.3355 23.8789 36.2414 23.5984 36.1661 23.3069C36.1464 23.3142 36.1268 23.3218 36.1072 23.3293C35.99 23.3744 35.8728 23.4195 35.743 23.4283C35.7094 23.4308 35.6743 23.4317 35.6408 23.4317C34.7828 23.4317 34.0641 22.7177 34.0098 21.7889C33.9104 20.0866 34.5734 18.3936 35.8261 17.145C37.0946 15.8821 38.8454 15.1434 40.8903 15.0083ZM38.1362 21.967C38.1362 23.471 39.275 24.6905 40.6792 24.6905C42.0836 24.6905 43.2228 23.471 43.2228 21.967C43.2228 20.4638 42.0836 19.2443 40.6792 19.2443C39.275 19.2443 38.1362 20.4638 38.1362 21.967Z" fill="#D95050"/>
</svg>
