<svg width="28" height="25" viewBox="0 0 28 25" fill="none" xmlns="http://www.w3.org/2000/svg">
<path fill-rule="evenodd" clip-rule="evenodd" d="M26.8058 8.78511C26.6795 8.78511 26.5498 8.80309 26.4204 8.83879L25.0606 9.21252L23.6231 5.71879C23.1925 4.67169 21.9191 3.81971 20.7846 3.81971H19.8282V0.923259C19.8282 0.414112 19.4132 0 18.903 0H9.09717C8.58694 0 8.17194 0.414112 8.17194 0.923259V3.81971H7.19575C6.06141 3.81971 4.78791 4.67157 4.35725 5.71866L2.92177 9.2076L1.57969 8.83866C1.45028 8.80309 1.3205 8.78499 1.1943 8.78499C0.502342 8.78511 0 9.31273 0 10.0395V10.7821C0 11.6306 0.69183 12.3208 1.54206 12.3208H1.641L1.43572 12.8196C1.03552 13.7925 0.709841 15.4396 0.709841 16.4911V23.4612C0.709841 24.3098 1.40155 25 2.2519 25H4.10571C4.95606 25 5.64777 24.3098 5.64777 23.4612V21.7482H22.3327V23.4612C22.3327 24.3098 23.0246 25 23.8748 25H25.7282C26.5786 25 27.2703 24.3098 27.2703 23.4612V16.4911C27.2703 15.4396 26.9446 13.7925 26.5444 12.8196L26.3391 12.3208H26.4579C27.3083 12.3208 28 11.6306 28 10.7821V10.0395C28 9.31273 27.4978 8.78511 26.8058 8.78511ZM17.7167 1.23126C17.7167 1.21095 17.7333 1.19433 17.7537 1.19433H18.4665C18.4868 1.19433 18.5035 1.21095 18.5035 1.23126V3.79139C18.5035 3.8037 18.4965 3.81294 18.4872 3.81971H17.733C17.7237 3.81294 17.7167 3.8037 17.7167 3.79139V1.23126ZM13.461 1.19433H12.6044C12.5841 1.19433 12.5613 1.20972 12.5535 1.2288L11.5167 3.79422C11.5124 3.80493 11.515 3.81355 11.521 3.81983H12.2833C12.2943 3.81355 12.3037 3.80469 12.3076 3.79361L12.4959 3.25935C12.5025 3.24015 12.5247 3.22451 12.5451 3.22451H13.516C13.5363 3.22451 13.5582 3.24027 13.5645 3.2596L13.7391 3.79336C13.7427 3.80456 13.7521 3.81343 13.763 3.81983H15.3478C15.3589 3.81404 15.3689 3.80629 15.3747 3.79706L15.8943 2.96551C15.9052 2.94827 15.9227 2.94827 15.9336 2.96551L16.4543 3.79706C16.4601 3.80629 16.4701 3.81404 16.4812 3.81983H17.3223C17.3246 3.81466 17.3231 3.8074 17.3167 3.79964L16.3678 2.62846C16.3551 2.6127 16.3537 2.58599 16.3651 2.569L17.2602 1.2251C17.2715 1.20811 17.264 1.19433 17.2437 1.19433H16.4512C16.4308 1.19433 16.4054 1.20836 16.3948 1.22572L15.9334 1.97196C15.9228 1.98931 15.9053 1.98931 15.8947 1.97196L15.4337 1.22572C15.4231 1.20848 15.3977 1.19433 15.3773 1.19433H14.5852C14.5648 1.19433 14.5573 1.20811 14.5687 1.2251L15.463 2.569C15.4743 2.58586 15.473 2.6127 15.4602 2.62846L14.5283 3.77884L13.5117 1.22867C13.5041 1.20972 13.4813 1.19433 13.461 1.19433ZM10.0977 3.79139V1.75776C10.0977 1.73745 10.081 1.72083 10.0607 1.72083H9.20388C9.18353 1.72083 9.16687 1.70421 9.16687 1.6839V1.23113C9.16687 1.21082 9.18353 1.1942 9.20388 1.1942H11.7834C11.8038 1.1942 11.8205 1.21082 11.8205 1.23113V1.6839C11.8205 1.70421 11.8038 1.72083 11.7834 1.72083H10.9217C10.9014 1.72083 10.8847 1.73745 10.8847 1.75776V3.79139C10.8847 3.8037 10.8777 3.81294 10.8684 3.81971H10.1139C10.1047 3.81306 10.0977 3.8037 10.0977 3.79139ZM6.19551 6.15395L4.01133 11.4632C3.75362 12.0895 4.09793 12.602 4.77644 12.602H23.2039C23.8825 12.602 24.2268 12.0895 23.9691 11.4632L21.7849 6.15395C21.5272 5.52761 20.7612 5.01514 20.0827 5.01514H7.8977C7.21919 5.01514 6.45322 5.52761 6.19551 6.15395ZM8.94543 18.3005C8.94543 18.639 8.66786 18.916 8.32861 18.916H4.15962C3.82036 18.916 3.54279 18.639 3.54279 18.3005V16.3269C3.54279 15.9884 3.82036 15.7114 4.15962 15.7114H8.32861C8.66786 15.7114 8.94543 15.9884 8.94543 16.3269V18.3005ZM23.7808 18.916C24.1201 18.916 24.3976 18.639 24.3976 18.3005V16.3269C24.3976 15.9884 24.1201 15.7114 23.7808 15.7114H19.6118C19.2726 15.7114 18.995 15.9884 18.995 16.3269V18.3005C18.995 18.639 19.2726 18.916 19.6118 18.916H23.7808Z" fill="#D95050"/>
<path d="M13.9625 3C13.9929 3 14.0078 2.97981 13.9959 2.95521L13.5363 2.01863C13.5241 1.99404 13.5038 1.99371 13.4913 2.01814L13.0045 2.9557C12.992 2.98013 13.0064 3 13.0368 3H13.9625Z" fill="#D95050"/>
</svg>
