<svg width="208" height="210" viewBox="0 0 208 210" fill="none" xmlns="http://www.w3.org/2000/svg">
<path d="M90.8162 188.855C140.973 188.855 181.632 146.601 181.632 94.4783C181.632 42.3554 140.973 0.101379 90.8162 0.101379C40.6598 0.101379 0 42.3554 0 94.4783C0 146.601 40.6598 188.855 90.8162 188.855Z" fill="#F5F5F5"/>
<path d="M62.6626 171.209C62.6626 171.209 58.4073 164.027 63.7823 149.44C69.1574 134.853 59.7511 107.698 44.5217 95.1308L45.4436 94.0089C45.4436 94.0089 70.053 108.596 72.7405 132.609C75.4279 156.622 69.8289 162.457 76.9957 171.209C76.9961 171.209 66.2459 172.78 62.6626 171.209Z" fill="#E4E4E4"/>
<path d="M72.7408 132.609C70.0533 108.596 45.4439 94.0087 45.4439 94.0087L45.0969 94.431C48.383 96.8829 63.2342 110.094 67.3659 122.229C72.237 136.536 70.3893 141.585 69.5496 150.338C68.8326 157.809 67.6306 166.627 71.577 171.771C74.5355 171.568 76.9964 171.208 76.9964 171.208C69.8295 162.456 75.4285 156.621 72.7408 132.609Z" fill="#E4E4E4"/>
<path d="M99.1258 61.6549C99.1258 61.6549 63.9153 48.2818 64.3343 88.0245L76.094 76.5494L75.5351 69.8568L78.4562 73.5738L99.1258 61.6549Z" fill="#D3D3D3"/>
<path d="M100.581 61.6842C100.581 61.6842 109.077 50.9426 122.919 56.2947C136.762 61.6469 137.178 74.1624 137.178 74.1624L119.155 67.1939L119.594 62.0224L117.108 66.4025L100.581 61.6842Z" fill="#D3D3D3"/>
<path d="M98.6764 61.1156C98.6764 61.1156 106.25 31.1038 71.3467 29L81.1412 40.4527L85.596 40.7352L82.7559 43.8509L98.6764 61.1156Z" fill="#D3D3D3"/>
<path d="M86.9365 151.978C86.9365 151.978 85.3159 142.463 97.0275 128.937C108.739 115.411 109.764 82.1987 98.5991 62.3271L100.044 61.4971C100.044 61.4971 120.424 87.431 113.491 114.471C106.558 141.51 98.182 145.494 102.277 157.909C102.277 157.91 90.13 155.157 86.9365 151.978Z" fill="#E4E4E4"/>
<path d="M113.491 114.471C120.424 87.4312 100.044 61.4971 100.044 61.4971L99.5003 61.8096C102.015 65.8168 112.513 86.2274 111.978 101.04C111.347 118.503 107.307 123.19 102.833 132.293C99.0135 140.064 94.1252 149.087 96.2475 156.274C99.4967 157.279 102.277 157.91 102.277 157.91C98.182 145.494 106.558 141.511 113.491 114.471Z" fill="#E4E4E4"/>
<path d="M99.2611 61.8364C99.2611 61.8364 71.9865 68.3373 78.0818 101.247L87.2644 85.1454L85.2634 81.4551L88.6288 83.173L99.2611 61.8364Z" fill="#D3D3D3"/>
<path d="M99.9438 61.6787C99.9438 61.6787 94.9627 48.4342 82.9497 45.8726C70.9367 43.311 60.2022 52.0763 57.3145 59.7091L77.2274 59.9089L79.9018 53.9294L81.9116 60.2607L99.9438 61.6787Z" fill="#D3D3D3"/>
<path d="M99.4114 61.8736L112.106 79.1056L116.64 77.1088L113.774 81.4169L123.792 96.3315C123.792 96.3315 130.937 81.8035 120.913 71.2615C110.888 60.7193 99.4114 61.8736 99.4114 61.8736Z" fill="#D3D3D3"/>
<path d="M99.6639 61.808C99.6639 61.808 96.9465 47.8743 109.34 41.6254C121.734 35.3766 132.686 44.819 135.698 49.525L118.805 52.9233L114.521 50.0862L114.818 54.6117L99.6639 61.808Z" fill="#D3D3D3"/>
<path d="M49.7952 97.164C49.7952 97.164 14.5847 83.7909 15.0037 123.534L26.7634 112.059L26.2045 105.366L29.1256 109.083L49.7952 97.164Z" fill="#D3D3D3"/>
<path d="M43.4597 94.4729C43.4597 94.4729 51.9564 83.7313 65.7984 89.0834C79.6407 94.4356 80.0574 106.951 80.0574 106.951L62.0345 99.9826L62.473 94.8111L59.9871 99.1912L43.4597 94.4729Z" fill="#D3D3D3"/>
<path d="M46.3297 97.1156C46.3297 97.1156 53.9032 67.1038 19 65L28.7945 76.4527L33.2493 76.7352L30.4092 79.8509L46.3297 97.1156Z" fill="#D3D3D3"/>
<path d="M50.0675 97C50.0675 97 22.7929 103.501 28.8882 136.411L38.0708 120.309L36.0698 116.619L39.4352 118.337L50.0675 97Z" fill="#D3D3D3"/>
<path d="M47.6294 98.2606C47.6294 98.2606 42.6482 85.0161 30.6352 82.4544C18.6222 79.8928 7.88776 88.6581 5 96.2909L24.9129 96.4907L27.5873 90.5112L29.5972 96.8425L47.6294 98.2606Z" fill="#D3D3D3"/>
<path d="M45.9653 94.3043L58.6603 111.536L63.1936 109.54L60.3275 113.848L70.3459 128.762C70.3459 128.762 77.4908 114.234 67.4667 103.692C57.4423 93.15 45.9653 94.3043 45.9653 94.3043Z" fill="#D3D3D3"/>
<path d="M45.2525 93.2535C45.2525 93.2535 42.5351 79.3197 54.929 73.0709C67.323 66.822 78.2746 76.2645 81.2869 80.9705L64.3937 84.3687L60.1093 81.5317L60.4062 86.0572L45.2525 93.2535Z" fill="#D3D3D3"/>
<path d="M86.9365 151.978C86.9365 151.978 85.3159 142.463 97.0275 128.937C108.739 115.411 109.764 82.1987 98.5991 62.3271L100.044 61.4971C100.044 61.4971 120.424 87.431 113.491 114.471C106.558 141.51 98.182 145.494 102.277 157.909C102.277 157.91 90.13 155.157 86.9365 151.978Z" fill="#E4E4E4"/>
<path d="M155.261 209.113H149.984C149.488 209.113 149.082 208.708 149.082 208.213V202.039C149.082 201.544 149.488 201.138 149.984 201.138H155.261C155.757 201.138 156.163 201.543 156.163 202.039V208.213C156.163 208.708 155.757 209.113 155.261 209.113Z" fill="#434244"/>
<path d="M189.461 205.126H184.184C183.688 205.126 183.282 204.72 183.282 204.225V198.051C183.282 197.556 183.688 197.151 184.184 197.151H189.461C189.957 197.151 190.364 197.556 190.364 198.051V204.225C190.364 204.72 189.958 205.126 189.461 205.126Z" fill="#434244"/>
<path d="M200.019 94.1034L181.607 92.8083C176.51 91.5973 135.778 92.5055 129.708 95.6878C125.974 97.6452 125.155 104.619 125.155 112.493C125.155 120.367 125.155 187.199 125.155 192.547C125.155 196.637 129.595 201.874 134.67 202.723C135.57 202.873 136.49 203.247 137.409 203.225L155.303 206.343C155.303 206.343 157.78 204.667 161.126 202.418C168.581 201.652 175.365 200.897 177.054 200.329C180.696 199.106 189.498 195.472 189.498 186.083C189.498 180.679 189.498 161.126 189.498 143.482C194.76 118.975 200.019 94.1034 200.019 94.1034Z" fill="#353537"/>
<path d="M200.019 94.1034C194.923 92.8924 154.19 93.8006 148.12 96.9829C144.387 98.9403 143.568 105.914 143.568 113.788C143.568 121.662 143.568 192.431 143.568 197.779C143.568 203.127 151.155 207.333 157.832 206.138C164.509 204.944 191.825 202.848 195.467 201.624C199.109 200.401 207.91 196.767 207.91 187.379C207.91 177.99 207.91 125.902 207.91 115.302C207.91 104.703 206.393 95.6177 200.019 94.1034Z" fill="#616369"/>
<path d="M146.755 127.851C146.755 132.696 147.817 137.03 150.397 137.21C152.977 137.39 194.759 134.362 197.693 133.605C200.627 132.847 201.233 126.639 201.233 122.399C201.233 118.16 199.868 113.163 193.798 112.708C187.728 112.254 156.163 115.131 152.066 115.283C147.969 115.434 146.755 119.977 146.755 127.851Z" fill="#353537"/>
<path d="M145.642 108.265C145.642 108.265 144.883 98.7046 153.077 97.2767C161.272 95.8489 189.346 94.4861 195.72 95.2433C202.093 96.0004 203.914 97.6659 205.28 104.026C205.28 104.026 203.459 96.3032 194.809 96.4546C186.159 96.606 159.299 97.8173 154.747 98.4231C150.194 99.0289 146.552 102.209 145.642 108.265Z" fill="white"/>
<path d="M149.082 128.254C149.082 133.1 150.144 137.434 152.724 137.614C155.303 137.794 197.085 134.765 200.02 134.008C202.953 133.251 203.56 127.043 203.56 122.803C203.56 118.563 202.195 113.567 196.125 113.112C190.055 112.658 158.49 115.535 154.393 115.687C150.296 115.838 149.082 120.38 149.082 128.254Z" fill="#616369"/>
<path d="M146.794 154.561C146.794 159.406 144.214 185.719 154.837 185.119C157.419 184.974 190.69 182.43 193.689 181.997C203.397 180.596 201.273 153.35 201.273 149.11C201.273 144.87 199.907 139.873 193.837 139.419C187.767 138.964 156.203 141.841 152.105 141.993C148.008 142.144 146.794 146.687 146.794 154.561Z" fill="#353537"/>
<path d="M149.357 155.368C149.357 160.214 146.777 186.527 157.4 185.927C159.982 185.781 193.253 183.238 196.252 182.805C205.96 181.403 203.836 154.157 203.836 149.917C203.836 145.677 202.47 140.68 196.4 140.226C190.33 139.772 158.766 142.649 154.668 142.8C150.571 142.952 149.357 147.494 149.357 155.368Z" fill="#616369"/>
<path d="M175.968 159.713C174.875 159.713 173.957 159.976 173.214 160.504C172.772 160.816 172.371 161.259 172.013 161.832C171.649 162.424 171.434 162.987 171.369 163.521H178.029L177.765 164.83H171.212C171.206 164.967 171.203 165.097 171.203 165.221C171.203 165.722 171.206 166.021 171.212 166.119H177.501L177.228 167.428H171.417C171.691 168.918 172.348 169.976 173.39 170.601C174.139 171.051 174.949 171.275 175.822 171.275C177.039 171.275 177.99 170.956 178.673 170.318V172.33C177.86 172.708 176.961 172.896 175.978 172.896C173.035 172.896 171.046 171.672 170.011 169.224C169.803 168.73 169.624 168.131 169.474 167.428H167.98L168.253 166.119H169.279C169.259 165.846 169.25 165.549 169.25 165.23C169.25 165.1 169.253 164.967 169.259 164.83H167.98L168.253 163.521H169.386C169.79 161.399 170.841 159.875 172.541 158.951C173.589 158.378 174.744 158.092 176.007 158.092C177.218 158.092 178.237 158.355 179.064 158.883L178.673 160.699C177.879 160.042 176.977 159.713 175.968 159.713Z" fill="white"/>
<path d="M150.447 125.343C150.447 125.343 150.548 117.857 153.988 117.453C157.428 117.049 191.723 114.525 195.568 114.828C199.412 115.131 202.043 117.756 201.739 121.895C201.739 121.895 201.031 116.242 195.062 115.939C189.093 115.636 158.036 118.24 155 118.563C151.964 118.886 150.346 123.642 150.447 125.343Z" fill="white"/>
<path d="M150.901 152.659C150.901 152.659 151.003 145.173 154.442 144.77C157.882 144.366 192.178 141.842 196.022 142.145C199.867 142.448 202.497 145.073 202.194 149.211C202.194 149.211 201.485 143.558 195.516 143.255C189.548 142.953 158.49 145.557 155.454 145.88C152.418 146.203 150.8 150.959 150.901 152.659Z" fill="white"/>
<path d="M154.165 120.3C154.048 120.3 153.948 120.211 153.938 120.092C153.928 119.967 154.021 119.857 154.146 119.846C154.476 119.819 187.253 117.08 196.279 117.201C196.404 117.202 196.505 117.305 196.503 117.431C196.502 117.557 196.4 117.665 196.273 117.655C187.286 117.527 154.514 120.272 154.184 120.299C154.177 120.3 154.171 120.3 154.165 120.3Z" fill="white"/>
<path d="M155.265 148.626C155.148 148.626 155.048 148.537 155.038 148.418C155.028 148.293 155.121 148.183 155.246 148.173C155.576 148.145 188.353 145.406 197.379 145.527C197.505 145.529 197.605 145.632 197.604 145.757C197.602 145.883 197.5 145.991 197.373 145.981C188.386 145.853 155.614 148.598 155.284 148.626C155.278 148.626 155.271 148.626 155.265 148.626Z" fill="white"/>
<path d="M148.93 90.7122C148.93 90.7122 148.93 70.3105 148.93 68.0896C148.93 65.8688 149.059 62.6383 153.446 62.5375C157.832 62.4364 172.055 62.1336 174.453 62.0328C176.852 61.9317 178.066 64.2535 178.066 66.6763C178.066 69.0992 178.066 90.2935 178.066 90.2935H175.031C175.031 90.2935 175.031 71.118 175.031 68.9981C175.031 66.8783 174.131 66.0708 172.001 65.9697C169.872 65.8688 154.32 66.5755 153.446 66.6763C152.572 66.7774 152.572 68.3926 152.572 69.9067C152.572 71.421 152.572 90.7122 152.572 90.7122C152.572 90.7122 150.447 91.5301 148.93 90.7122Z" fill="#999B9C"/>
<path d="M150.548 91.0151C150.548 91.0151 150.548 70.3105 150.548 68.0898C150.548 65.869 150.678 62.6385 155.065 62.5376C159.451 62.4366 173.673 62.1338 176.072 62.0329C178.471 61.9319 179.685 64.2537 179.685 66.6765C179.685 69.0994 179.685 90.2937 179.685 90.2937H176.65C176.65 90.2937 176.65 71.1182 176.65 68.9983C176.65 66.8784 175.749 66.0709 173.619 65.9699C171.49 65.869 155.939 66.5757 155.064 66.6765C154.19 66.7776 154.19 68.3927 154.19 69.9068C154.19 71.4211 154.19 90.7123 154.19 90.7123C154.19 90.7123 152.066 91.8331 150.548 91.0151Z" fill="#BFC1C3"/>
<path d="M156.365 62.4871V66.6167L155.469 66.6765C155.469 66.6765 155.556 67.6861 156.871 67.6356C158.187 67.5851 171.591 66.9793 172.4 66.929C173.21 66.8786 173.766 65.2633 173.564 63.8502C173.362 62.437 173.159 61.2257 171.945 61.1751C170.731 61.1246 156.618 61.579 155.961 61.579C155.303 61.579 154.997 62.5629 154.997 62.5629L156.365 62.4871Z" fill="#5E5E5E"/>
<path d="M170.934 65.465C168.657 65.566 160.362 65.7174 158.541 65.6669C156.72 65.6164 156.365 63.4965 156.365 63.4965V66.6167L155.469 66.6765C155.469 66.6765 155.556 67.6861 156.871 67.6356C158.187 67.5851 171.591 66.9795 172.401 66.929C173.21 66.8784 173.766 65.2633 173.564 63.85C173.519 63.5379 173.473 63.2388 173.417 62.9565C173.132 63.9285 172.453 65.3978 170.934 65.465Z" fill="#686868"/>
<path d="M88.652 134.764L77.7214 134.259C77.5768 134.252 77.4416 134.294 77.3231 134.364L77.3248 134.358L76.239 134.86L76.8622 135.187L74.9063 141.382C74.8012 141.715 74.4733 141.926 74.1261 141.884L73.0523 141.753C72.9052 141.736 72.7683 141.774 72.6445 141.836L72.6347 141.829L71.5466 142.334L72.176 142.823C72.1431 143.212 72.4167 143.566 72.8146 143.606L73.2418 143.649L73.9785 144.221L75.1089 143.694L75.1072 143.693C75.2516 143.607 75.3676 143.475 75.4254 143.308L77.9708 135.902C78.0755 135.597 78.3693 135.398 78.6917 135.413L88.101 135.858C88.0701 135.307 88.3536 134.966 88.652 134.764Z" fill="#464646"/>
<path d="M129.561 145.406C129.561 145.406 55.0636 139.584 52.9827 139.376C52.5573 139.334 52.1329 139.409 51.7252 139.562L51.7244 139.562C51.6277 139.599 51.5316 139.636 51.4371 139.681L42.1619 143.523L48.8208 148.899C48.8208 161.697 48.8208 192.1 48.8208 194.269C48.8208 196.972 51.3179 198.22 53.815 198.635C55.7015 198.95 96.4172 202.586 117.387 204.256L122.389 208.295L130.958 204.795C131.052 204.761 131.142 204.721 131.232 204.683L131.232 204.683C132.933 203.954 133.93 202.293 133.93 199.883C133.93 196.764 133.93 156.01 133.93 151.852C133.93 147.693 132.091 145.604 129.561 145.406Z" fill="url(#paint0_linear)"/>
<path d="M119.78 149.565C119.78 149.565 45.2834 143.743 43.2024 143.535C41.1216 143.327 39.0405 145.822 39.0405 147.485C39.0405 149.149 39.0405 195.724 39.0405 198.427C39.0405 201.13 41.5376 202.378 44.0347 202.794C46.5318 203.21 117.075 209.448 119.78 209.24C122.485 209.032 124.15 207.16 124.15 204.041C124.15 200.923 124.15 160.169 124.15 156.01C124.15 151.852 122.311 149.762 119.78 149.565Z" fill="url(#paint1_linear)"/>
<path d="M40.3931 150.396C40.3931 150.396 39.1446 144.055 45.5954 144.575C52.0463 145.094 113.85 150.085 116.971 150.396C120.092 150.708 122.485 151.644 122.069 157.674C122.069 157.674 122.173 152.371 116.139 151.852C110.104 151.332 49.8615 146.238 46.5319 146.03C43.2023 145.822 41.7456 145.926 40.3931 150.396Z" fill="url(#paint2_linear)"/>
<path d="M73.7923 141.034C73.7923 141.034 66.479 144.517 65.2692 145.292C64.0592 146.066 64.4277 151.852 64.4277 155.594C64.4277 159.337 64.4277 204.713 64.4277 204.713L56.0732 203.963C56.0732 203.963 56.0732 150.06 56.0732 146.798C56.0732 143.535 64.2879 140.284 64.2879 140.284L73.7923 141.034Z" fill="#343436"/>
<path d="M111.259 143.974C111.259 143.974 102.687 147.756 101.477 148.53C100.267 149.305 100.635 155.09 100.635 158.833C100.635 162.575 100.635 207.952 100.635 207.952L92.2808 207.201C92.2808 207.201 92.2808 153.299 92.2808 150.036C92.2808 146.773 103.133 143.171 103.133 143.171L111.259 143.974Z" fill="#343436"/>
<path d="M64.2876 140.284C64.2876 140.284 57.423 142.447 56.073 144.567C54.7228 146.686 53.5026 153.723 53.3987 156.53C53.2945 159.337 54.9593 162.352 57.2485 162.456C59.5374 162.56 61.0983 160.377 61.9305 156.738C62.7628 153.099 62.7846 146.514 65.8999 144.931C69.0153 143.348 73.7922 141.034 73.7922 141.034L64.2876 140.284Z" fill="#353537"/>
<path d="M101.754 143.171C101.754 143.171 94.8898 145.334 93.5398 147.453C92.1896 149.573 90.9694 156.61 90.8655 159.416C90.7613 162.223 92.4261 165.238 94.7153 165.342C97.0042 165.446 98.565 163.263 99.3973 159.624C100.23 155.986 100.252 149.401 103.367 147.818C106.482 146.235 111.259 143.921 111.259 143.921L101.754 143.171Z" fill="#353537"/>
<path d="M57.7735 143.172C57.7735 143.172 66.9497 144.237 67.5134 144.269C68.0773 144.3 69.0811 143.813 68.411 143.607C67.7408 143.402 59.2858 142.53 58.6285 142.528C57.9715 142.526 57.0812 143.092 57.7735 143.172Z" fill="#565656"/>
<path d="M61.8732 141.315C61.8732 141.315 70.5596 142.163 71.0937 142.188C71.6278 142.213 72.5857 141.817 71.9529 141.651C71.3201 141.486 63.3151 140.793 62.6919 140.792C62.0689 140.792 61.2179 141.251 61.8732 141.315Z" fill="#565656"/>
<path d="M95.5625 145.902C95.5625 145.902 104.739 146.967 105.302 146.999C105.866 147.031 106.87 146.543 106.2 146.337C105.53 146.132 97.0749 145.26 96.4177 145.258C95.7605 145.256 94.8702 145.822 95.5625 145.902Z" fill="#565656"/>
<path d="M99.6623 144.046C99.6623 144.046 108.349 144.893 108.883 144.918C109.417 144.943 110.375 144.547 109.742 144.381C109.109 144.216 101.104 143.523 100.481 143.522C99.8579 143.522 99.0069 143.982 99.6623 144.046Z" fill="#565656"/>
<path d="M88.1841 135.313L76.6073 134.777C76.2784 134.762 75.9802 134.97 75.8812 135.284L73.7924 141.901C73.6873 142.234 73.3591 142.445 73.012 142.403L71.9381 142.272C71.5578 142.226 71.2068 142.483 71.1366 142.859L71.0599 143.27C70.9819 143.687 71.2775 144.082 71.7003 144.124L73.5509 144.312C73.8864 144.346 74.2014 144.145 74.3109 143.826L76.8562 136.42C76.9611 136.115 77.2547 135.916 77.5773 135.931L88.2331 136.435C88.0536 135.957 88.0675 135.59 88.1841 135.313Z" fill="#838383"/>
<path d="M88.988 133.698C87.2147 134.447 88.373 136.547 87.8642 136.595C87.3179 136.647 81.3874 136.283 79.8525 136.205C78.8314 136.153 78.4756 135.31 78.351 134.75C78.1425 135.669 78.476 136.659 78.9422 136.699C79.8398 136.777 88.1843 137.31 88.7745 137.323C90.5841 137.362 90.6404 134.069 88.988 133.698Z" fill="#464646"/>
<path d="M95.5395 143.643L94.5291 143.569C94.1836 143.544 93.9039 143.279 93.8612 142.935L92.9411 135.566C92.8973 135.215 92.6073 134.947 92.2542 134.931L89.618 134.852C89.3197 135.053 89.0086 135.254 89.0669 135.945L91.0709 135.998C91.4362 136.015 91.7315 136.301 91.7603 136.665L92.3734 144.43C92.4017 144.789 92.6889 145.073 93.0483 145.097L94.257 145.179L94.6912 145.683L95.8198 145.155L95.8167 145.148C95.9876 145.047 96.1208 144.886 96.1635 144.679L96.1978 144.513C96.2867 144.084 95.9771 143.674 95.5395 143.643Z" fill="#464646"/>
<path d="M94.4255 144.161L93.415 144.088C93.0695 144.063 92.7899 143.797 92.7472 143.454L91.8271 136.084C91.7834 135.734 91.4933 135.466 91.1402 135.45L89.1518 135.313C89.0353 135.589 89.0214 135.957 89.2009 136.435L89.9569 136.516C90.3222 136.534 90.6177 136.82 90.6463 137.184L91.2594 144.949C91.2876 145.308 91.5749 145.592 91.9343 145.616L94.2895 145.775C94.6515 145.799 94.976 145.553 95.0495 145.198L95.0838 145.031C95.1727 144.602 94.8629 144.193 94.4255 144.161Z" fill="#838383"/>
<path d="M80.6588 133.19C79.5224 133.128 78.8707 133.593 78.5466 134.203C78.7084 134.711 79.1357 135.432 80.2686 135.51C82.0374 135.633 86.1472 135.867 86.7975 135.815C87.3416 135.772 87.2578 134.331 87.8213 133.601C85.7395 133.479 81.336 133.227 80.6588 133.19Z" fill="#464646"/>
<path d="M99.1258 61.6549C99.1258 61.6549 63.9153 48.2818 64.3343 88.0245L76.094 76.5494L75.5351 69.8568L78.4562 73.5738L99.1258 61.6549Z" fill="#D3D3D3"/>
<path d="M100.581 61.6842C100.581 61.6842 109.077 50.9426 122.919 56.2947C136.762 61.6469 137.178 74.1624 137.178 74.1624L119.155 67.1939L119.594 62.0224L117.108 66.4025L100.581 61.6842Z" fill="#D3D3D3"/>
<path d="M98.6764 61.1156C98.6764 61.1156 106.25 31.1038 71.3467 29L81.1412 40.4527L85.596 40.7352L82.7559 43.8509L98.6764 61.1156Z" fill="#D3D3D3"/>
<path d="M99.2611 61.8364C99.2611 61.8364 71.9865 68.3373 78.0818 101.247L87.2644 85.1454L85.2634 81.4551L88.6288 83.173L99.2611 61.8364Z" fill="#D3D3D3"/>
<path d="M99.9438 61.6787C99.9438 61.6787 94.9627 48.4342 82.9497 45.8726C70.9367 43.311 60.2022 52.0763 57.3145 59.7091L77.2274 59.9089L79.9018 53.9294L81.9116 60.2607L99.9438 61.6787Z" fill="#D3D3D3"/>
<path d="M99.4114 61.8736L112.106 79.1056L116.64 77.1088L113.774 81.4169L123.792 96.3315C123.792 96.3315 130.937 81.8035 120.913 71.2615C110.888 60.7193 99.4114 61.8736 99.4114 61.8736Z" fill="#D3D3D3"/>
<path d="M99.6639 61.808C99.6639 61.808 96.9465 47.8743 109.34 41.6254C121.734 35.3766 132.686 44.819 135.698 49.525L118.805 52.9233L114.521 50.0862L114.818 54.6117L99.6639 61.808Z" fill="#D3D3D3"/>
<path d="M145.616 94.1951C145.616 94.1951 146.4 90.8763 146.943 90.8763C147.486 90.8763 151.529 91.1774 151.71 91.2978C151.891 91.4182 151.71 95.0307 151.71 95.0307L145.616 94.1951Z" fill="#E4E4E5"/>
<path d="M151.71 91.2976C151.71 91.2976 155.813 90.8159 156.055 91.2976C156.296 91.7793 156.598 94.4586 156.598 94.4586L151.71 95.0305V91.2976Z" fill="#CCCECF"/>
<path d="M172.709 92.9221C172.709 92.9221 173.342 90.2918 173.773 90.2937C174.204 90.2954 177.41 90.5473 177.553 90.6434C177.696 90.7395 177.541 93.6048 177.541 93.6048L172.709 92.9221Z" fill="#E4E4E5"/>
<path d="M177.553 90.6432C177.553 90.6432 180.81 90.2743 181 90.6573C181.189 91.0402 181.42 93.1665 181.42 93.1665L177.541 93.6046L177.553 90.6432Z" fill="#CCCECF"/>
<path d="M173.11 61.9612C172.882 61.5003 172.534 61.1994 171.945 61.1749C170.731 61.1244 156.618 61.5788 155.961 61.5788C155.519 61.5788 155.24 62.018 155.102 62.3097C155.182 62.3861 155.267 62.4638 155.362 62.5428L156.365 62.4875V63.2126C157.309 63.7152 158.624 64.1008 160.412 64.0016C164.965 63.7492 169.111 63.935 171.136 63.7997C172.42 63.7137 173.11 62.8437 173.11 61.9612Z" fill="#686868"/>
<path d="M98.1387 169.421C98.1387 170.455 97.3003 171.293 96.266 171.293C95.2317 171.293 94.3931 170.455 94.3931 169.421C94.3931 168.388 95.2315 167.55 96.266 167.55C97.3001 167.55 98.1387 168.388 98.1387 169.421Z" fill="#A7A8AA"/>
<path d="M94.3931 169.421C94.3931 169.905 94.5817 170.342 94.8833 170.674C95.1382 170.816 95.427 170.903 95.7391 170.903C96.7196 170.903 97.5143 170.109 97.5143 169.129C97.5143 168.461 97.1399 167.886 96.5933 167.583C96.4865 167.564 96.378 167.55 96.2658 167.55C95.2315 167.55 94.3931 168.388 94.3931 169.421Z" fill="#B9BBBC"/>
<path d="M95.9341 169.097C95.9341 169.474 95.7159 169.779 95.4465 169.779C95.1772 169.779 94.9587 169.473 94.9587 169.097C94.9587 168.72 95.1772 168.414 95.4465 168.414C95.7157 168.414 95.9341 168.72 95.9341 169.097Z" fill="#CED0D1"/>
<path d="M61.6369 167.55C61.6369 168.584 60.7983 169.421 59.764 169.421C58.7297 169.421 57.8911 168.584 57.8911 167.55C57.8911 166.517 58.7297 165.679 59.764 165.679C60.7983 165.679 61.6369 166.517 61.6369 167.55Z" fill="#A7A8AA"/>
<path d="M57.8914 167.55C57.8914 168.034 58.08 168.471 58.3816 168.803C58.6365 168.944 58.9253 169.032 59.2374 169.032C60.2179 169.032 61.0126 168.237 61.0126 167.258C61.0126 166.589 60.6382 166.014 60.0916 165.712C59.9848 165.693 59.8762 165.679 59.7641 165.679C58.7298 165.679 57.8914 166.517 57.8914 167.55Z" fill="#B9BBBC"/>
<path d="M59.4324 167.225C59.4324 167.602 59.2142 167.907 58.9448 167.907C58.6755 167.907 58.457 167.602 58.457 167.225C58.457 166.848 58.6755 166.543 58.9448 166.543C59.214 166.543 59.4324 166.849 59.4324 167.225Z" fill="#CED0D1"/>
<path d="M98.1387 198.846C98.1387 199.879 97.3003 200.717 96.266 200.717C95.2317 200.717 94.3931 199.879 94.3931 198.846C94.3931 197.812 95.2315 196.974 96.266 196.974C97.3001 196.974 98.1387 197.812 98.1387 198.846Z" fill="#A7A8AA"/>
<path d="M94.3931 198.846C94.3931 199.329 94.5817 199.766 94.8833 200.098C95.1382 200.24 95.427 200.327 95.7391 200.327C96.7196 200.327 97.5143 199.533 97.5143 198.553C97.5143 197.885 97.1399 197.31 96.5933 197.007C96.4865 196.988 96.378 196.974 96.2658 196.974C95.2315 196.974 94.3931 197.812 94.3931 198.846Z" fill="#B9BBBC"/>
<path d="M95.9341 198.521C95.9341 198.898 95.7159 199.203 95.4465 199.203C95.1772 199.203 94.9587 198.897 94.9587 198.521C94.9587 198.144 95.1772 197.839 95.4465 197.839C95.7157 197.838 95.9341 198.144 95.9341 198.521Z" fill="#CED0D1"/>
<path d="M61.6369 195.967C61.6369 197.001 60.7983 197.838 59.764 197.838C58.7297 197.838 57.8911 197 57.8911 195.967C57.8911 194.934 58.7297 194.096 59.764 194.096C60.7983 194.096 61.6369 194.934 61.6369 195.967Z" fill="#A7A8AA"/>
<path d="M57.8914 195.967C57.8914 196.451 58.08 196.888 58.3816 197.22C58.6365 197.361 58.9253 197.449 59.2374 197.449C60.2179 197.449 61.0126 196.654 61.0126 195.675C61.0126 195.006 60.6382 194.431 60.0916 194.129C59.9848 194.11 59.8762 194.096 59.7641 194.096C58.7298 194.096 57.8914 194.934 57.8914 195.967Z" fill="#B9BBBC"/>
<path d="M59.4324 195.642C59.4324 196.019 59.2142 196.324 58.9448 196.324C58.6755 196.324 58.457 196.019 58.457 195.642C58.457 195.265 58.6755 194.96 58.9448 194.96C59.214 194.96 59.4324 195.266 59.4324 195.642Z" fill="#CED0D1"/>
<path d="M80.6588 133.19C81.4779 133.235 87.759 133.595 88.7744 133.658C90.6473 133.775 90.6603 137.364 88.7744 137.323C88.184 137.31 79.8395 136.777 78.9421 136.699C78.0448 136.621 77.6205 133.025 80.6588 133.19Z" fill="#848484"/>
<defs>
<linearGradient id="paint0_linear" x1="42.1046" y1="206.757" x2="129.645" y2="206.757" gradientUnits="userSpaceOnUse">
<stop stop-color="#D95050"/>
<stop offset="1" stop-color="#792B2B"/>
</linearGradient>
<linearGradient id="paint1_linear" x1="38.9874" y1="209.29" x2="124.091" y2="209.29" gradientUnits="userSpaceOnUse">
<stop stop-color="#D95050"/>
<stop offset="1" stop-color="#AE3F3F"/>
</linearGradient>
<linearGradient id="paint2_linear" x1="40.2448" y1="157.683" x2="122.059" y2="157.683" gradientUnits="userSpaceOnUse">
<stop stop-color="#D95050"/>
<stop offset="1" stop-color="#AE3F3F"/>
</linearGradient>
</defs>
</svg>
